<svg width="28" height="28" xmlns="http://www.w3.org/2000/svg"><g fill="currentColor" fill-rule="evenodd"><path d="M14 11a3 3 0 1 0 0 6 3 3 0 0 0 0-6"/><path d="M14 19c-2.757 0-5-2.243-5-5s2.243-5 5-5 5 2.243 5 5-2.243 5-5 5m10.974-5.69a1.446 1.446 0 0 0-1.102-1.284l-.848-.212a1.767 1.767 0 0 1-1.212-1.065 1.764 1.764 0 0 1 .115-1.584l.444-.74a1.462 1.462 0 0 0-.153-1.72 10.864 10.864 0 0 0-.923-.923 1.462 1.462 0 0 0-1.72-.153l-.74.444a1.768 1.768 0 0 1-1.6.108 1.767 1.767 0 0 1-1.049-1.205l-.212-.848a1.446 1.446 0 0 0-1.284-1.102 9.276 9.276 0 0 0-1.38 0 1.446 1.446 0 0 0-1.284 1.102l-.212.848a1.767 1.767 0 0 1-1.065 1.212 1.768 1.768 0 0 1-1.584-.115l-.74-.444a1.462 1.462 0 0 0-1.72.153c-.326.289-.634.597-.923.923a1.462 1.462 0 0 0-.153 1.72l.444.74a1.764 1.764 0 0 1 .108 1.6 1.767 1.767 0 0 1-1.205 1.049l-.848.212a1.446 1.446 0 0 0-1.102 1.284 9.276 9.276 0 0 0 0 1.38 1.446 1.446 0 0 0 1.102 1.284l.848.212a1.765 1.765 0 0 1 1.212 1.065 1.764 1.764 0 0 1-.115 1.584l-.444.74a1.462 1.462 0 0 0 .153 1.72c.289.325.597.634.923.923.475.422 1.175.48 1.72.153l.74-.444a1.764 1.764 0 0 1 1.6-.108c.522.213.912.658 1.049 1.205l.212.848c.15.603.665 1.057 1.284 1.102a9.276 9.276 0 0 0 1.38 0 1.446 1.446 0 0 0 1.284-1.102l.212-.848a1.765 1.765 0 0 1 1.065-1.212 1.764 1.764 0 0 1 1.584.115l.74.444a1.462 1.462 0 0 0 1.72-.153c.326-.289.634-.598.923-.923.422-.476.48-1.175.153-1.72l-.444-.74a1.764 1.764 0 0 1-.108-1.6 1.765 1.765 0 0 1 1.205-1.049l.848-.212a1.446 1.446 0 0 0 1.102-1.284 9.276 9.276 0 0 0 0-1.38"/></g></svg>