<svg style="position: absolute; width: 0; height: 0;" width="0" height="0" version="1.1"
  xmlns="http://www.w3.org/2000/svg" xmlns:xlink="http://www.w3.org/1999/xlink">
  <defs>
    <symbol id="close_window_icon" viewBox="0 -128 1024 1024">
      <path fill="currentColor"
        d="M394 146 q-27 -21 -60.5 -17.5 q-33.5 3.5 -56 28.5 q-22.5 25 -21.5 59 q1 34 25 58 l110 110 l-110 110 q-24 24 -25 58 q-1 34 21.5 59 q22.5 25 56 28.5 q33.5 3.5 60.5 -17.5 l8 -7 l110 -110 l110 110 l8 7 q27 21 60.5 17.5 q33.5 -3.5 56 -28.5 q22.5 -25 21.5 -59 q-1 -34 -25 -58 l-110 -110 l110 -110 q24 -24 25 -58 q1 -34 -21.5 -59 q-22.5 -25 -56 -28.5 q-33.5 -3.5 -60.5 17.5 l-8 7 l-110 110 l-110 -110 l-8 -7 Z">
      </path>
    </symbol>
    <symbol id="magnifier_icon" viewBox="0 -128 1024 1024">
      <path fill="currentColor"
        d="M512 -25.29 q-77 0 -146.5 31 q-69.5 31 -120.5 87.5 q-51 56.5 -74.5 130 q-23.5 73.5 -15 149.5 q8.5 76 47 141.5 q38.5 65.5 101.5 110.5 q63 45 137.5 59.5 q74.5 14.5 149 -2 q74.5 -16.5 136.5 -62.5 l107 108 l5 4 q16 12 36 10 q20 -2 33.5 -17 q13.5 -15 13 -35 q-0.5 -20 -14.5 -35 l-108 -107 q61 -82 70 -183.5 q9 -101.5 -36.5 -192.5 q-45.5 -91 -132 -144 q-86.5 -53 -188.5 -53 ZM512 76.71 q70 0 128.5 34.5 q58.5 34.5 93 93 q34.5 58.5 34.5 128.5 q0 70 -34.5 128.5 q-34.5 58.5 -93 93 q-58.5 34.5 -128.5 34.5 q-70 0 -128.5 -34.5 q-58.5 -34.5 -93 -93 q-34.5 -58.5 -34.5 -128.5 q0 -70 34.5 -128.5 q34.5 -58.5 93 -93 q58.5 -34.5 128.5 -34.5 Z">
      </path>
    </symbol>
    <symbol id="group" viewBox="0 -128 1024 1024">
      <path fill="currentColor"
        d="M252 435 q-29 0 -47.5 3.5 q-18.5 3.5 -35.5 13.5 q-33 17 -50 50 q-9 16 -13 35 q-4 19 -4 48 l0 59 q0 29 4 47.5 q4 18.5 13 35.5 q17 33 50 50 q17 9 35.5 13 q18.5 4 47.5 4 l59 0 q29 0 48 -4 q19 -4 35 -13 q33 -17 50 -50 q10 -17 13.5 -35.5 q3.5 -18.5 3.5 -47.5 l0 -59 q0 -29 -3.5 -48 q-3.5 -19 -13.5 -35 q-17 -33 -50 -50 q-16 -10 -35 -13.5 q-19 -3.5 -48 -3.5 l-59 0 ZM713 435 q-29 0 -48 3.5 q-19 3.5 -35 13.5 q-33 17 -50 50 q-10 16 -13.5 35 q-3.5 19 -3.5 48 l0 59 q0 29 3.5 47.5 q3.5 18.5 13.5 35.5 q17 33 50 50 q16 9 35 13 q19 4 48 4 l59 0 q29 0 47.5 -4 q18.5 -4 35.5 -13 q33 -17 50 -50 q9 -17 13 -35.5 q4 -18.5 4 -47.5 l0 -59 q0 -29 -4 -48 q-4 -19 -13 -35 q-17 -33 -50 -50 q-17 -10 -35.5 -13.5 q-18.5 -3.5 -47.5 -3.5 l-59 0 ZM329 538 q11 1 17 4 q6 3 8.5 8.5 q2.5 5.5 3.5 16.5 l0 11 l0 73 l0 11 q-1 11 -4 16.5 q-3 5.5 -8.5 8.5 q-5.5 3 -16.5 4 l-11 0 l-73 0 l-11 0 q-11 -1 -16.5 -4 q-5.5 -3 -8.5 -8.5 q-3 -5.5 -4 -16.5 l0 -11 l0 -73 l0 -11 q1 -11 4 -16.5 q3 -5.5 8.5 -8.5 q5.5 -3 16.5 -4 l11 0 l73 0 l11 0 ZM790 538 q11 1 16.5 4 q5.5 3 8.5 8.5 q3 5.5 4 16.5 l0 11 l0 73 l0 11 q-1 11 -4 16.5 q-3 5.5 -8.5 8.5 q-5.5 3 -16.5 4 l-11 0 l-73 0 l-11 0 q-11 -1 -16.5 -4 q-5.5 -3 -8.5 -8.5 q-3 -5.5 -4 -16.5 l0 -11 l0 -73 l0 -11 q1 -11 4 -16.5 q3 -5.5 8.5 -8.5 q5.5 -3 16.5 -4 l11 0 l73 0 l11 0 ZM252 -26 q-29 0 -47.5 4 q-18.5 4 -35.5 13 q-33 17 -50 50 q-9 17 -13 35.5 q-4 18.5 -4 47.5 l0 59 q0 29 4 48 q4 19 13 35 q17 33 50 50 q17 10 35.5 13.5 q18.5 3.5 47.5 3.5 l59 0 q29 0 48 -3.5 q19 -3.5 35 -13.5 q33 -17 51 -50 q9 -16 12.5 -35 q3.5 -19 3.5 -48 l0 -59 q0 -29 -3.5 -47.5 q-3.5 -18.5 -12.5 -35.5 q-18 -33 -51 -50 q-16 -9 -35 -13 q-19 -4 -48 -4 l-59 0 ZM713 -26 q-29 0 -48 4 q-19 4 -35 13 q-33 17 -50 50 q-10 17 -13.5 35.5 q-3.5 18.5 -3.5 47.5 l0 59 q0 29 3.5 48 q3.5 19 13.5 35 q17 33 50 50 q17 10 35.5 13.5 q18.5 3.5 47.5 3.5 l59 0 q29 0 47.5 -3.5 q18.5 -3.5 35.5 -13.5 q33 -17 50 -50 q9 -16 13 -35 q4 -19 4 -48 l0 -59 q0 -29 -4 -47.5 q-4 -18.5 -13 -35.5 q-17 -33 -50 -50 q-17 -9 -35.5 -13 q-18.5 -4 -47.5 -4 l-59 0 ZM329 77 q11 1 17 4 q6 3 8.5 8.5 q2.5 5.5 3.5 16.5 l0 11 l0 73 l0 11 q-1 11 -4 17 q-3 6 -8.5 8.5 q-5.5 2.5 -16.5 3.5 l-11 0 l-73 0 l-11 0 q-11 -1 -16.5 -4 q-5.5 -3 -8.5 -8.5 q-3 -5.5 -4 -16.5 l0 -11 l0 -73 l0 -11 q1 -11 4 -16.5 q3 -5.5 8.5 -8.5 q5.5 -3 16.5 -4 l11 0 l73 0 l11 0 ZM790 77 q11 1 16.5 4 q5.5 3 8.5 8.5 q3 5.5 4 16.5 l0 11 l0 73 l0 11 q-1 11 -4 16.5 q-3 5.5 -8.5 8.5 q-5.5 3 -16.5 4 l-11 0 l-73 0 l-11 0 q-11 -1 -16.5 -4 q-5.5 -3 -8.5 -8.5 q-3 -5.5 -4 -16.5 l0 -11 l0 -73 l0 -11 q1 -11 4 -16.5 q3 -5.5 8.5 -8.5 q5.5 -3 16.5 -4 l11 0 l73 0 l11 0 Z">
      </path>
    </symbol>
    <symbol id="bullet_list" viewBox="0 -128 1024 1024">
      <path fill="currentColor"
        d="M384 640 l0 85 l469 0 q18 0 30.5 -12.5 q12.5 -12.5 12.5 -30 q0 -17.5 -12.5 -30 q-12.5 -12.5 -30.5 -12.5 l-469 0 ZM171 640 q-18 0 -30.5 12.5 q-12.5 12.5 -12.5 30 q0 17.5 12.5 30 q12.5 12.5 30.5 12.5 l128 0 l0 -85 l-128 0 ZM384 341 l0 86 l469 0 q18 0 30.5 -12.5 q12.5 -12.5 12.5 -30.5 q0 -18 -12.5 -30.5 q-12.5 -12.5 -30.5 -12.5 l-469 0 ZM171 341 q-18 0 -30.5 12.5 q-12.5 12.5 -12.5 30.5 q0 18 12.5 30.5 q12.5 12.5 30.5 12.5 l128 0 l0 -86 l-128 0 ZM384 43 l0 85 l469 0 q18 0 30.5 -12.5 q12.5 -12.5 12.5 -30 q0 -17.5 -12.5 -30 q-12.5 -12.5 -30.5 -12.5 l-469 0 ZM171 43 q-12 0 -22 5.5 q-10 5.5 -15.5 15.5 q-5.5 10 -5.5 21.5 q0 11.5 5.5 21.5 q5.5 10 15.5 15.5 q10 5.5 22 5.5 l128 0 l0 -85 l-128 0 Z">
      </path>
    </symbol>
    <symbol id="return_icon" viewBox="0 -128 1024 1024"><path fill="currentColor" d="M319 350.41 l-4 6 q-9 14 -8 30.5 q1 16.5 12 29.5 l256 307 l4 5 q15 13 34 13.5 q19 0.5 34 -11.5 l5 -5 q13 -14 13.5 -33.5 q0.5 -19.5 -11.5 -34.5 l-229 -274 l229 -274 l4 -6 q10 -17 6.5 -36.5 q-3.5 -19.5 -20 -31.5 q-16.5 -12 -36.5 -9.5 q-20 2.5 -33 17.5 l-256 307 Z"></path></symbol>
    <symbol id="import_icon" viewBox="0 -128 1024 1024"><path fill="currentColor" d="M197 -49 q-43 0 -79 21 q-36 21 -57.5 57.5 q-21.5 36.5 -21.5 78.5 l0 507 q0 50 6 78 q4 23 15 44 q21 39 60 59 q21 11 44 16 q28 5 77 5 l542 0 q49 0 77 -5 q23 -5 44 -16 q39 -20 60 -59 q11 -21 15 -44 q6 -28 6 -78 l0 -344 q0 -50 -6 -78 q-4 -22 -15 -43 q-21 -39 -60 -60 q-21 -11 -44 -16 q-28 -5 -77 -5 l-228 0 q-33 0 -55.5 -5 q-22.5 -5 -42 -17.5 q-19.5 -12.5 -42.5 -35.5 l-3 -2 q-23 -23 -42.5 -35.5 q-19.5 -12.5 -42 -17.5 q-22.5 -5 -55.5 -5 l-75 0 ZM540 238 q10 11 11 25.5 q1 14.5 -8 26.5 l-93 94 l220 0 q15 0 26.5 10.5 q11.5 10.5 12.5 26.5 q1 16 -9 28 q-10 12 -26 13 l-224 1 l90 90 q10 11 11 25.5 q1 14.5 -8 26.5 l-3 4 q-11 10 -25.5 11 q-14.5 1 -26.5 -8 l-161 -161 q-11 -10 -12 -25 q-1 -15 8 -27 l161 -161 q12 -12 28 -12 q16 0 28 12 Z"></path></symbol>
    <symbol id="export_icon1" viewBox="0 -128 1024 1024"><path fill="currentColor" d="M743 105.62 q12 -18 7 -39 q-5 -21 -23 -32 q-85 -52 -183 -59 q-96 -8 -186 28 q-91 37 -156 112.5 q-65 75.5 -88 171.5 q-23 94 -1 188 q22 96 86 172 q64 76 155 114 q89 37 185 31 q99 -7 184 -58 q17 -11 22 -31.5 q5 -20.5 -5.5 -38 q-10.5 -17.5 -31 -23 q-20.5 -5.5 -38.5 5.5 q-64 38 -137 42.5 q-73 4.5 -140.5 -23.5 q-67.5 -28 -115.5 -85 q-48 -57 -64.5 -128.5 q-16.5 -71.5 1 -142.5 q17.5 -71 66 -127.5 q48.5 -56.5 116.5 -84 q68 -27.5 141 -22 q73 5.5 136 44.5 q18 11 38.5 6.5 q20.5 -4.5 31.5 -22.5 ZM920 372.62 l-1 -6 l-2 -5 l-4 -6 l3 5 l-3 -6 l-102 -153 l-4 -5 q-13 -15 -33.5 -17.5 q-20.5 -2.5 -36.5 10 q-16 12.5 -19.5 32.5 q-3.5 20 7.5 37 l50 74 l-263 0 l-6 0 q-19 2 -32 17 q-13 15 -13 34 l0 6 q2 19 17 32 q15 13 34 13 l263 0 l-53 79 q-9 18 -3 38 q6 20 23.5 30 q17.5 10 37 5.5 q19.5 -4.5 31.5 -21.5 l104 -156 l3 -6 l3 -10 q1 -4 1 -8 l0 -6 l-2 -7 Z"></path></symbol>
    <symbol id="arrow_icon" viewBox="0 -128 1024 1024"><path fill="currentColor" d="M751 332.97 l6 9 q12 22 10.5 47.5 q-1.5 25.5 -16.5 45.5 l-256 342 l-7 8 q-22 23 -54.5 25.5 q-32.5 2.5 -58.5 -16.5 l-8 -7 q-23 -23 -25.5 -55 q-2.5 -32 16.5 -58 l218 -290 l-218 -290 l-5 -9 q-17 -29 -9 -62 q8 -33 36 -51.5 q28 -18.5 61.5 -13 q33.5 5.5 53.5 32.5 l256 342 Z"></path></symbol>
    <symbol id="dengdaisousuo" viewBox="0 -128 1024 1024"><path fill="currentColor" d="M512 16 q-100 0 -186 50 q-83 49 -132 132 q-50 86 -50 186 q0 100 50 186 q49 83 132 132 q86 50 186 50 q100 0 186 -50 q83 -49 132 -132 q50 -86 50 -186 q0 -100 -50 -186 q-49 -83 -132 -132 q-86 -50 -186 -50 ZM512 80 q83 0 153 42 q69 40 109 109 q42 70 42 153 q0 83 -42 153 q-40 69 -109 109 q-70 42 -153 42 q-83 0 -153 -42 q-69 -40 -109 -109 q-42 -70 -42 -153 q0 -83 42 -153 q40 -69 109 -109 q70 -42 153 -42 ZM512 448 q-59 0 -115 17 q-56 17 -105 49 q34 58 92.5 92 q58.5 34 127.5 34 q69 0 127.5 -34 q58.5 -34 92.5 -92 q-48 -32 -104 -49 q-56 -17 -116 -17 ZM512 160 q-35 0 -64.5 17 q-29.5 17 -46.5 46.5 q-17 29.5 -17 64.5 q0 35 17 64.5 q17 29.5 46.5 46.5 q29.5 17 64.5 17 q35 0 64.5 -17 q29.5 -17 46.5 -46.5 q17 -29.5 17 -64.5 q0 -35 -17 -64.5 q-17 -29.5 -46.5 -46.5 q-29.5 -17 -64.5 -17 Z"></path></symbol>
    <symbol id="down_icon" viewBox="0 -128 1024 1024"><path fill="currentColor" d="M554 544.12 q-22 12 -47.5 10.5 q-25.5 -1.5 -45.5 -16.5 l-256 -171 l-8 -7 q-24 -22 -26.5 -54.5 q-2.5 -32.5 17.5 -58.5 l7 -8 q22 -23 54 -25.5 q32 -2.5 58 16.5 l205 133 l214 -138 q29 -17 62 -9 q33 8 51.5 36 q18.5 28 12.5 61.5 q-6 33.5 -33 53.5 l-265 177 Z"></path></symbol>
    <symbol id="close_icon" viewBox="0 -128 1024 1024"><path fill="currentColor" d="M308 61 q-26 -21 -60 -18 q-34 3 -56 28.5 q-22 25.5 -21 59 q1 33.5 25 57.5 l195 196 l-195 196 q-24 24 -25 57.5 q-1 33.5 21 59 q22 25.5 56 28.5 q34 3 60 -18 l8 -7 l196 -195 l196 195 l8 7 q26 21 60 18 q34 -3 56 -28.5 q22 -25.5 21 -59 q-1 -33.5 -25 -57.5 l-195 -196 l195 -196 q24 -24 25 -57.5 q1 -33.5 -21 -59 q-22 -25.5 -56 -28.5 q-34 -3 -60 18 l-8 7 l-196 195 l-196 -195 l-8 -7 Z"></path></symbol>
    <symbol id="url_icon" viewBox="0 -128 1024 1024"><path fill="currentColor" d="M512 0 q-104 0 -194 52 q-87 51 -138 138 q-52 90 -52 194 q0 104 52 194 q51 87 138 138 q90 52 194 52 q104 0 194 -52 q87 -51 138 -138 q52 -90 52 -194 q0 -104 -52 -194 q-51 -87 -138 -138 q-90 -52 -194 -52 ZM394 502 q118 20 236 1 q-11 58 -30 105 q-19 45 -42.5 70.5 q-23.5 25.5 -45.5 25.5 q-22 0 -44.5 -24.5 q-22.5 -24.5 -41.5 -68.5 q-19 -44 -30 -101 l-2 -8 ZM390 680 q-77 -32 -128 -96.5 q-51 -64.5 -65 -145.5 l7 4 q59 29 123 46 q16 113 61 190 l2 2 ZM827 440 q-14 81 -65.5 144.5 q-51.5 63.5 -127.5 95.5 q47 -77 63 -191 q60 -16 115 -42 l15 -7 ZM518 64 q29 5 57.5 48.5 q28.5 43.5 45.5 112.5 q19 75 19 159 q0 27 -2 52 q-61 12 -125.5 12 q-64.5 0 -126.5 -12 q-2 -25 -2 -52 q0 -87 20 -164 q19 -70 48.5 -113 q29.5 -43 59.5 -43 l6 0 ZM634 88 q85 35 138.5 110 q53.5 75 58.5 167 l-29 16 q-47 24 -99 39 q1 -17 1 -36 q0 -87 -18 -165 q-18 -75 -50 -129 l-2 -2 ZM390 88 q-33 54 -51 130 q-19 78 -19 166 q0 18 1 35 q-56 -17 -108 -45 l-20 -10 q5 -89 56 -162.5 q51 -73.5 132 -109.5 l9 -4 Z"></path></symbol>
    <symbol id="add_icon2" viewBox="0 -128 1024 1024"><path fill="currentColor" d="M512 0 q-35 0 -60 25 q-25 25 -25 60 l0 214 l-214 0 q-35 0 -60 25 q-25 25 -25 60 q0 35 25 60 q25 25 60 25 l214 0 l0 214 q0 23 11.5 42.5 q11.5 19.5 31 31 q19.5 11.5 42.5 11.5 q23 0 42.5 -11.5 q19.5 -11.5 31 -31 q11.5 -19.5 11.5 -42.5 l0 -214 l214 0 q35 0 60 -25 q25 -25 25 -60 q0 -35 -25 -60 q-25 -25 -60 -25 l-214 0 l0 -214 q0 -35 -25 -60 q-25 -25 -60 -25 Z"></path></symbol>
    <symbol id="minimalism" viewBox="0 -128 1024 1024"><path fill="currentColor" d="M85 42.53 q5 -21 21 -24 q16 -3 30 11 q29 30 61.5 43.5 q32.5 13.5 67 17.5 q34.5 4 66.5 4 q32 0 64 -4 l69 -8 q36 -4 68 -4 q98 0 172.5 32 q74.5 32 117 96 q42.5 64 42.5 161 q0 14 -0.5 26.5 q-0.5 12.5 -2.5 20.5 q-2 12 -13 15.5 q-11 3.5 -22 -5.5 q-43 -40 -87 -59.5 q-44 -19.5 -87 -27 q-43 -7.5 -85.5 -10.5 q-42.5 -3 -83 -9 q-40.5 -6 -78.5 -22.5 q-38 -16.5 -73 -51.5 q-10 -9 -18 -3.5 q-8 5.5 -4 15.5 q17 44 50 68 q34 26 75 37 q46 14 93 21 q51 9 103 20.5 q52 11.5 102 32.5 q53 24 95 63 q16 14 37 38 q21 24 40 50 q19 26 32.5 53 q13.5 27 13.5 48 q0 27 -16 44.5 q-16 17.5 -39 17.5 q-12 0 -21.5 -6.5 q-9.5 -6.5 -13.5 -20.5 q-14 -42 -27.5 -75.5 q-13.5 -33.5 -31.5 -63.5 q-7 -12 -12 -18 l-3 -4 l-2 2 q-19 22 -53 45.5 q-34 23.5 -84 40 q-50 16.5 -118 16.5 q-103 0 -187 -34.5 q-84 -34.5 -144.5 -100.5 q-60.5 -66 -93 -156.5 q-32.5 -90.5 -32.5 -202.5 q0 -32 3 -63 q3 -36 9 -66 Z"></path></symbol>
    <symbol id="standard_icon" viewBox="0 -128 1024 1024"><path fill="currentColor" d="M238 18 q-21 0 -33 2.5 q-12 2.5 -21 7.5 q-18 10 -28 28 q-5 9 -7.5 21 q-2.5 12 -2.5 33 l0 36 q0 21 2.5 33 q2.5 12 7.5 21 q10 18 28 28 q9 5 21 7.5 q12 2.5 33 2.5 l36 0 q21 0 33 -2.5 q12 -2.5 21 -7.5 q18 -10 28 -28 q5 -9 7.5 -21 q2.5 -12 2.5 -33 l0 -36 q0 -21 -2.5 -33 q-2.5 -12 -7.5 -21 q-10 -18 -28 -28 q-9 -5 -21 -7.5 q-12 -2.5 -33 -2.5 l-36 0 ZM238 274 q-21 0 -33 2.5 q-12 2.5 -21 7.5 q-18 10 -28 28 q-5 9 -7.5 21 q-2.5 12 -2.5 33 l0 36 q0 21 2.5 33 q2.5 12 7.5 21 q10 18 28 28 q9 5 21 7.5 q12 2.5 33 2.5 l36 0 q21 0 33 -2.5 q12 -2.5 21 -7.5 q18 -10 28 -28 q5 -9 7.5 -21 q2.5 -12 2.5 -33 l0 -36 q0 -21 -2.5 -33 q-2.5 -12 -7.5 -21 q-10 -18 -28 -28 q-9 -5 -21 -7.5 q-12 -2.5 -33 -2.5 l-36 0 ZM238 530 q-21 0 -33 2.5 q-12 2.5 -21 7.5 q-18 10 -28 28 q-5 9 -7.5 21 q-2.5 12 -2.5 33 l0 36 q0 21 2.5 33 q2.5 12 7.5 21 q10 18 28 28 q9 5 21 7.5 q12 2.5 33 2.5 l36 0 q21 0 33 -2.5 q12 -2.5 21 -7.5 q18 -10 28 -28 q5 -9 7.5 -21 q2.5 -12 2.5 -33 l0 -36 q0 -21 -2.5 -33 q-2.5 -12 -7.5 -21 q-10 -18 -28 -28 q-9 -5 -21 -7.5 q-12 -2.5 -33 -2.5 l-36 0 ZM494 18 q-21 0 -33 2.5 q-12 2.5 -21 7.5 q-18 10 -28 28 q-5 9 -7.5 21 q-2.5 12 -2.5 33 l0 36 q0 21 2.5 33 q2.5 12 7.5 21 q10 18 28 28 q9 5 21 7.5 q12 2.5 33 2.5 l36 0 q21 0 33 -2.5 q12 -2.5 21 -7.5 q18 -10 28 -28 q5 -9 7.5 -21 q2.5 -12 2.5 -33 l0 -36 q0 -21 -2.5 -33 q-2.5 -12 -7.5 -21 q-10 -18 -28 -28 q-9 -5 -21 -7.5 q-12 -2.5 -33 -2.5 l-36 0 ZM494 274 q-21 0 -33 2.5 q-12 2.5 -21 7.5 q-18 10 -28 28 q-5 9 -7.5 21 q-2.5 12 -2.5 33 l0 36 q0 21 2.5 33 q2.5 12 7.5 21 q10 18 28 28 q9 5 21 7.5 q12 2.5 33 2.5 l36 0 q21 0 33 -2.5 q12 -2.5 21 -7.5 q18 -10 28 -28 q5 -9 7.5 -21 q2.5 -12 2.5 -33 l0 -36 q0 -21 -2.5 -33 q-2.5 -12 -7.5 -21 q-10 -18 -28 -28 q-9 -5 -21 -7.5 q-12 -2.5 -33 -2.5 l-36 0 ZM494 530 q-21 0 -33 2.5 q-12 2.5 -21 7.5 q-18 10 -28 28 q-5 9 -7.5 21 q-2.5 12 -2.5 33 l0 36 q0 21 2.5 33 q2.5 12 7.5 21 q10 18 28 28 q9 5 21 7.5 q12 2.5 33 2.5 l36 0 q21 0 33 -2.5 q12 -2.5 21 -7.5 q18 -10 28 -28 q5 -9 7.5 -21 q2.5 -12 2.5 -33 l0 -36 q0 -21 -2.5 -33 q-2.5 -12 -7.5 -21 q-10 -18 -28 -28 q-9 -5 -21 -7.5 q-12 -2.5 -33 -2.5 l-36 0 ZM750 18 q-21 0 -33 2.5 q-12 2.5 -21 7.5 q-18 10 -28 28 q-5 9 -7.5 21 q-2.5 12 -2.5 33 l0 36 q0 21 2.5 33 q2.5 12 7.5 21 q10 18 28 28 q9 5 21 7.5 q12 2.5 33 2.5 l36 0 q21 0 33 -2.5 q12 -2.5 21 -7.5 q18 -10 28 -28 q5 -9 7.5 -21 q2.5 -12 2.5 -33 l0 -36 q0 -21 -2.5 -33 q-2.5 -12 -7.5 -21 q-10 -18 -28 -28 q-9 -5 -21 -7.5 q-12 -2.5 -33 -2.5 l-36 0 ZM750 274 q-21 0 -33 2.5 q-12 2.5 -21 7.5 q-18 10 -28 28 q-5 9 -7.5 21 q-2.5 12 -2.5 33 l0 36 q0 21 2.5 33 q2.5 12 7.5 21 q10 18 28 28 q9 5 21 7.5 q12 2.5 33 2.5 l36 0 q21 0 33 -2.5 q12 -2.5 21 -7.5 q18 -10 28 -28 q5 -9 7.5 -21 q2.5 -12 2.5 -33 l0 -36 q0 -21 -2.5 -33 q-2.5 -12 -7.5 -21 q-10 -18 -28 -28 q-9 -5 -21 -7.5 q-12 -2.5 -33 -2.5 l-36 0 ZM750 530 q-21 0 -33 2.5 q-12 2.5 -21 7.5 q-18 10 -28 28 q-5 9 -7.5 21 q-2.5 12 -2.5 33 l0 36 q0 21 2.5 33 q2.5 12 7.5 21 q10 18 28 28 q9 5 21 7.5 q12 2.5 33 2.5 l36 0 q21 0 33 -2.5 q12 -2.5 21 -7.5 q18 -10 28 -28 q5 -9 7.5 -21 q2.5 -12 2.5 -33 l0 -36 q0 -21 -2.5 -33 q-2.5 -12 -7.5 -21 q-10 -18 -28 -28 q-9 -5 -21 -7.5 q-12 -2.5 -33 -2.5 l-36 0 Z"></path></symbol>
    <symbol id="deploy_icon" viewBox="0 -128 1024 1024"><path fill="currentColor" d="M311 18 q-44 0 -82.5 22 q-38.5 22 -60.5 60.5 q-22 38.5 -22 82.5 q0 44 22 82 q22 38 60.5 60 q38.5 22 82.5 22 l402 0 q44 0 82.5 -22 q38.5 -22 60.5 -60 q22 -38 22 -82 q0 -44 -22 -82.5 q-22 -38.5 -60.5 -60.5 q-38.5 -22 -82.5 -22 l-402 0 ZM713 91 q38 0 65 27 q27 27 27 65 q0 38 -27 64.5 q-27 26.5 -65 26.5 l-402 0 q-38 0 -65 -26.5 q-27 -26.5 -27 -64.5 q0 -38 27 -65 q27 -27 65 -27 l402 0 ZM311 183 l0 0 ZM256 183 q0 -23 16 -39 q16 -16 39 -16 q23 0 39 16 q16 16 16 39 q0 23 -16 39 q-16 16 -39 16 q-23 0 -39 -16 q-16 -16 -16 -39 ZM311 421 q-44 0 -82.5 22 q-38.5 22 -60.5 60 q-22 38 -22 82 q0 44 22 82.5 q22 38.5 60.5 60.5 q38.5 22 82.5 22 l402 0 q44 0 82.5 -22 q38.5 -22 60.5 -60.5 q22 -38.5 22 -82.5 q0 -44 -22 -82 q-22 -38 -60.5 -60 q-38.5 -22 -82.5 -22 l-402 0 ZM713 494 q38 0 65 26.5 q27 26.5 27 64.5 q0 38 -27 65 q-27 27 -65 27 q-38 0 -64.5 -27 q-26.5 -27 -26.5 -65 q0 -38 26.5 -64.5 q26.5 -26.5 64.5 -26.5 Z"></path></symbol>
    <symbol id="clear_merge_icon" viewBox="0 -128 1024 1024"><path fill="currentColor" d="M512 -64 q-122 0 -226 61 q-101 60 -161 161 q-61 104 -61 226 q0 122 61 226 q60 101 161 161 q104 61 226 61 q122 0 226 -61 q101 -60 161 -161 q61 -104 61 -226 q0 -122 -61 -226 q-60 -101 -161 -161 q-104 -61 -226 -61 ZM429 211 l83 82 l83 -82 l6 -6 q19 -14 43 -12.5 q24 1.5 41 18.5 q17 17 18.5 41 q1.5 24 -12.5 43 l-6 6 l-82 83 l82 83 q18 18 19 43 q1 25 -16 44 q-17 19 -42 21.5 q-25 2.5 -45 -12.5 l-6 -6 l-83 -82 l-83 82 l-6 6 q-19 14 -43 12.5 q-24 -1.5 -41 -18.5 q-17 -17 -18.5 -41 q-1.5 -24 12.5 -43 l6 -6 l82 -83 l-82 -83 q-18 -18 -19 -43 q-1 -25 16 -44 q17 -19 42 -21.5 q25 -2.5 45 12.5 l6 6 Z"></path></symbol>
    <symbol id="single_hover_icon" viewBox="0 -128 1024 1024"><path fill="currentColor" d="M512 384 l0 0 ZM614 384 q0 28 -13.5 51.5 q-13.5 23.5 -37 37 q-23.5 13.5 -51.5 13.5 q-28 0 -51.5 -13.5 q-23.5 -13.5 -37 -37 q-13.5 -23.5 -13.5 -51.5 q0 -28 13.5 -51.5 q13.5 -23.5 37 -37 q23.5 -13.5 51.5 -13.5 q28 0 51.5 13.5 q23.5 13.5 37 37 q13.5 23.5 13.5 51.5 ZM870 384 l0 0 ZM973 384 q0 27 -14 51 q-14 24 -37.5 37.5 q-23.5 13.5 -51 13.5 q-27.5 0 -51.5 -13.5 q-24 -13.5 -37.5 -37.5 q-13.5 -24 -13.5 -51 q0 -27 13.5 -51 q13.5 -24 37.5 -37.5 q24 -13.5 51.5 -13.5 q27.5 0 51 13.5 q23.5 13.5 37.5 37.5 q14 24 14 51 ZM154 384 l0 0 ZM256 384 q0 28 -14 51.5 q-14 23.5 -37.5 37 q-23.5 13.5 -51 13.5 q-27.5 0 -51 -13.5 q-23.5 -13.5 -37.5 -37 q-14 -23.5 -14 -51.5 q0 -28 14 -51.5 q14 -23.5 37.5 -37 q23.5 -13.5 51 -13.5 q27.5 0 51 13.5 q23.5 13.5 37.5 37 q14 23.5 14 51.5 Z"></path></symbol>
    <symbol id="wangluo" viewBox="0 -128 1024 1024"><path fill="currentColor" d="M512 -18 q-109 0 -203 55 q-91 53 -144 144 q-55 94 -55 203 q0 109 55 203 q53 91 144 144 q94 55 203 55 q109 0 203 -55 q91 -53 144 -144 q55 -94 55 -203 q0 -109 -55 -203 q-53 -91 -144 -144 q-94 -55 -203 -55 ZM405 451 q107 12 214 0 q-6 73 -23 135 q-16 58 -39 92.5 q-23 34.5 -45 34.5 q-22 0 -45 -34 q-23 -34 -39 -92 q-17 -62 -23 -135 l0 -1 ZM183 397 q72 28 148 42 q4 75 19 139.5 q15 64.5 40 111.5 q-89 -36 -145 -113.5 q-56 -77.5 -62 -173.5 l0 -6 ZM841 398 q-4 97 -60 176 q-56 79 -147 116 q25 -47 40 -111.5 q15 -64.5 19 -138.5 q76 -15 147 -42 l1 -1 l0 1 ZM512 55 q25 0 50.5 43.5 q25.5 43.5 41.5 114.5 q17 77 18 164 q-110 14 -220 0 l0 7 q0 -86 17 -164 q15 -72 39.5 -117 q24.5 -45 50.5 -48 l3 0 ZM390 78 q-28 53 -43.5 127 q-15.5 74 -17.5 160 q-78 -17 -152 -49 l12 5 q16 -81 67.5 -144.5 q51.5 -63.5 127.5 -95.5 l6 -3 ZM634 78 q78 32 131.5 96.5 q53.5 64.5 69.5 146.5 l-4 2 q-66 26 -136 42 q-2 -85 -17.5 -158 q-15.5 -73 -41.5 -126 l-2 -3 Z"></path></symbol>
    <symbol id="yuedu" viewBox="0 -128 1024 1024"><path fill="currentColor" d="M293 2.96 q-50 0 -92 24.5 q-42 24.5 -66.5 66.5 q-24.5 42 -24.5 92 l0 292 q0 37 14 70.5 q14 33.5 39.5 59 q25.5 25.5 59 39.5 q33.5 14 70.5 14 l94 0 q33 0 57 21 l6 5 q24 25 58.5 26 q34.5 1 61.5 -22 l4 -4 q26 -26 63 -26 l94 0 q50 0 92 -24.5 q42 -24.5 66.5 -66.5 q24.5 -42 24.5 -92 l0 -292 q0 -37 -14 -70.5 q-14 -33.5 -39.5 -59 q-25.5 -25.5 -59 -39.5 q-33.5 -14 -70.5 -14 l-94 0 q-32 0 -62 12 q-30 12 -52 35 q-5 5 -11 5 q-6 0 -11 -5 q-22 -23 -52 -35 q-30 -12 -62 -12 l-94 0 ZM387 75.96 q33 0 57 21 l6 5 q24 24 58.5 25.5 q34.5 1.5 61.5 -21.5 l4 -4 q26 -26 63 -26 l94 0 q22 0 42.5 8.5 q20.5 8.5 35.5 24 q15 15.5 23.5 35.5 q8.5 20 8.5 42 l0 292 q0 22 -8.5 42 q-8.5 20 -23.5 35.5 q-15 15.5 -35.5 24 q-20.5 8.5 -42.5 8.5 l-94 0 q-32 0 -62 12.5 q-30 12.5 -52 34.5 q-5 5 -11 5 q-6 0 -11 -5 q-22 -22 -52 -34.5 q-30 -12.5 -62 -12.5 l-94 0 q-22 0 -42.5 -8.5 q-20.5 -8.5 -35.5 -24 q-15 -15.5 -23.5 -35.5 q-8.5 -20 -8.5 -42 l0 -292 q0 -22 8.5 -42 q8.5 -20 23.5 -35.5 q15 -15.5 35.5 -24 q20.5 -8.5 42.5 -8.5 l94 0 ZM293 441.96 q-16 0 -26.5 10.5 q-10.5 10.5 -10.5 25.5 q0 15 10.5 26 q10.5 11 26.5 11 l73 0 q15 0 25.5 -11 q10.5 -11 10.5 -26 q0 -15 -10.5 -25.5 q-10.5 -10.5 -25.5 -10.5 l-73 0 ZM293 294.96 q-16 0 -26.5 11 q-10.5 11 -10.5 26 q0 15 10.5 26 q10.5 11 26.5 11 l109 0 q15 0 26 -11 q11 -11 11 -26 q0 -15 -11 -26 q-11 -11 -26 -11 l-109 0 ZM293 148.96 q-16 0 -26.5 11 q-10.5 11 -10.5 26 q0 15 10.5 25.5 q10.5 10.5 26.5 10.5 l73 0 q15 0 25.5 -10.5 q10.5 -10.5 10.5 -25.5 q0 -15 -10.5 -26 q-10.5 -11 -25.5 -11 l-73 0 Z"></path></symbol>
    <symbol id="chanpin" viewBox="0 -128 1024 1024"><path fill="currentColor" d="M311 421 q-25 0 -41 3 q-16 3 -30 11 q-28 14 -43 42 q-8 15 -11 31 q-3 16 -3 41 l0 36 q0 25 3 41 q3 16 11 30 q15 28 43 43 q14 8 30 11 q16 3 41 3 l36 0 q25 0 41 -3 q16 -3 31 -11 q27 -15 42 -43 q8 -14 11 -30 q3 -16 3 -41 l0 -104 q0 -19 -7 -32.5 q-7 -13.5 -20.5 -20.5 q-13.5 -7 -32.5 -7 l-104 0 ZM609 421 q-19 0 -32.5 7 q-13.5 7 -20.5 20.5 q-7 13.5 -7 32.5 l0 104 q0 25 3 41 q3 16 11 30 q14 28 42 43 q15 8 31 11 q16 3 41 3 l36 0 q25 0 41 -3 q16 -3 30 -11 q28 -15 43 -43 q8 -14 11 -30 q3 -16 3 -41 l0 -36 q0 -25 -3 -41 q-3 -16 -11 -31 q-15 -27 -43 -42 q-14 -8 -30 -11 q-16 -3 -41 -3 l-104 0 ZM402 596 q-1 17 -5.5 25.5 q-4.5 8.5 -12.5 13 q-8 4.5 -21 5.5 l-63 0 q-17 -1 -25.5 -5.5 q-8.5 -4.5 -13 -12.5 q-4.5 -8 -5.5 -21 l0 -10 l0 -48 l0 -10 q1 -13 5.5 -21 q4.5 -8 12.5 -12.5 q8 -4.5 21 -5.5 l10 0 l97 0 l0 102 ZM719 494 l10 0 q13 1 21 5.5 q8 4.5 12.5 12.5 q4.5 8 5.5 21 l0 63 q-1 17 -5.5 25.5 q-4.5 8.5 -12.5 13 q-8 4.5 -21 5.5 l-64 0 q-17 -1 -25 -5.5 q-8 -4.5 -12.5 -12.5 q-4.5 -8 -5.5 -21 l0 -10 l0 -97 l97 0 ZM311 55 q-25 0 -41 3 q-16 3 -30 11 q-28 15 -43 43 q-8 14 -11 30 q-3 16 -3 41 l0 36 q0 25 3 41 q3 16 11 31 q15 28 43 42 q14 8 30 11 q16 3 41 3 l104 0 q19 0 32.5 -7 q13.5 -7 20.5 -20.5 q7 -13.5 7 -32.5 l0 -104 q0 -25 -3 -41 q-3 -16 -11 -30 q-14 -28 -42 -43 q-15 -8 -31 -11 q-16 -3 -41 -3 l-36 0 ZM677 55 q-25 0 -41 3 q-16 3 -31 11 q-27 15 -42 43 q-8 14 -11 30 q-3 16 -3 41 l0 104 q0 19 7 32.5 q7 13.5 20.5 20.5 q13.5 7 32.5 7 l104 0 q25 0 41 -3 q16 -3 30 -11 q28 -14 43 -42 q8 -15 11 -31 q3 -16 3 -41 l0 -36 q0 -25 -3 -41 q-3 -16 -11 -30 q-15 -28 -43 -43 q-14 -8 -30 -11 q-16 -3 -41 -3 l-36 0 ZM363 128 q13 1 21.5 5.5 q8.5 4.5 12.5 12.5 l1 2 q3 7 4 19 l0 16 l0 91 l-102 0 q-17 -1 -25.5 -5.5 q-8.5 -4.5 -13 -12.5 q-4.5 -8 -5.5 -21 l0 -10 l0 -48 l0 -10 q1 -13 5.5 -21 q4.5 -8 12.5 -12.5 q8 -4.5 21 -5.5 l10 0 l48 0 l10 0 ZM729 128 q13 1 21 5.5 q8 4.5 12.5 12.5 q4.5 8 5.5 21 l0 64 q-1 17 -5.5 25.5 q-4.5 8.5 -12.5 12.5 l-2 1 q-7 3 -19 4 l-16 0 l-91 0 l0 -97 l0 -10 q1 -13 5.5 -21 q4.5 -8 12.5 -12.5 q8 -4.5 21 -5.5 l10 0 l48 0 l10 0 Z"></path></symbol>
    <symbol id="chuangyi" viewBox="0 -128 1024 1024"><path fill="currentColor" d="M398 640 q-14 2 -23.5 13 q-9.5 11 -8.5 25.5 q1 14.5 11.5 24.5 q10.5 10 24.5 10 l224 0 q14 -2 23.5 -13 q9.5 -11 8.5 -25.5 q-1 -14.5 -11.5 -24.5 q-10.5 -10 -24.5 -10 l-224 0 ZM512 -18 q-69 0 -132 27.5 q-63 27.5 -109.5 77.5 q-46.5 50 -69.5 115.5 q-23 65.5 -17.5 133.5 q5.5 68 37.5 129 q32 61 86 104 q22 17 43 25 q24 10 52 10 l229 -1 q25 -1 47 -10 q19 -9 40 -25 q54 -43 85.5 -104 q31.5 -61 36.5 -129 q5 -68 -17.5 -133 q-22.5 -65 -69.5 -115 q-47 -50 -109.5 -77.5 q-62.5 -27.5 -131.5 -27.5 ZM512 55 q54 0 102.5 21.5 q48.5 21.5 85 60 q36.5 38.5 54 89.5 q17.5 51 13.5 104 q-4 53 -28.5 100 q-24.5 47 -66.5 81 q-13 10 -24.5 14.5 q-11.5 4.5 -25.5 4.5 l-73 0 l0 -101 q1 -32 13 -60.5 q12 -28.5 33 -52.5 l19 -19 q8 -11 7.5 -25 q-0.5 -14 -10.5 -23.5 q-10 -9.5 -23.5 -10.5 q-13.5 -1 -24.5 8 l-13 11 l-8 10 q-17 18 -30 40 q-16 -27 -38 -50 l-13 -11 q-11 -9 -25.5 -8 q-14.5 1 -24 12 q-9.5 11 -9 25.5 q0.5 14.5 10.5 24.5 l16 16 q22 25 34 57 q12 32 12 65 l0 92 l-79 0 q-22 -1 -43 -19 q-42 -33 -67 -80 q-25 -47 -29 -100 q-4 -53 13.5 -104 q17.5 -51 54 -90 q36.5 -39 85 -60.5 q48.5 -21.5 102.5 -21.5 Z"></path></symbol>
    <symbol id="sheying" viewBox="0 -128 1024 1024"><path fill="currentColor" d="M439 18 q-15 0 -26 10.5 q-11 10.5 -11 25.5 l-43 1 q-42 0 -68.5 5.5 q-26.5 5.5 -50.5 17.5 q-45 25 -70 71 q-12 23 -17.5 49.5 q-5.5 26.5 -6.5 68.5 l0 233 q1 42 6.5 68.5 q5.5 26.5 17.5 50.5 q25 45 70 70 q25 13 53.5 18.5 q28.5 5.5 76.5 5.5 l295 0 q42 -1 68.5 -6.5 q26.5 -5.5 50.5 -17.5 q45 -25 70 -70 q13 -25 18.5 -53.5 q5.5 -28.5 5.5 -76.5 l0 -222 q-1 -42 -6.5 -68.5 q-5.5 -26.5 -17.5 -49.5 q-25 -46 -70 -71 l-7 -3 q-22 -11 -47 -15.5 q-25 -4.5 -65 -5.5 l-43 0 q0 -15 -11 -25.5 q-11 -10.5 -26 -10.5 l-146 0 ZM679 128 l23 1 q27 3 47 14 q26 14 40 40 q7 12 10 24.5 q3 12.5 4 31.5 l1 22 l0 253 l-1 23 q-3 27 -14 47 q-14 26 -40 40 q-12 7 -24.5 10 q-12.5 3 -31.5 4 l-22 1 l-326 0 l-23 -1 q-27 -3 -47 -14 q-26 -14 -40 -40 q-7 -12 -10 -24.5 q-3 -12.5 -4 -31.5 l-1 -22 l-1 -237 l2 -30 l0 -9 q3 -27 14 -47 q14 -26 40 -40 q12 -6 24.5 -9.5 q12.5 -3.5 31.5 -4.5 l30 -1 l293 0 l25 0 ZM695 493 q-15 0 -26 11 q-11 11 -11 26 q0 15 11 25.5 q11 10.5 26 10.5 q10 0 18.5 -4.5 q8.5 -4.5 13 -13 q4.5 -8.5 4.5 -18.5 q0 -10 -4.5 -18.5 q-4.5 -8.5 -13 -13.5 q-8.5 -5 -18.5 -5 ZM512 237 q-40 0 -73.5 20 q-33.5 20 -53 53.5 q-19.5 33.5 -19.5 73 q0 39.5 19.5 73 q19.5 33.5 53 53.5 q33.5 20 73.5 20 q40 0 73.5 -20 q33.5 -20 53 -53.5 q19.5 -33.5 19.5 -73 q0 -39.5 -19.5 -73 q-19.5 -33.5 -53 -53.5 q-33.5 -20 -73.5 -20 ZM512 310 q30 0 51.5 21.5 q21.5 21.5 21.5 52 q0 30.5 -21.5 52 q-21.5 21.5 -51.5 21.5 q-20 0 -37 -10 q-17 -10 -26.5 -27 q-9.5 -17 -9.5 -36.5 q0 -19.5 9.5 -36.5 q9.5 -17 26.5 -27 q17 -10 37 -10 Z"></path></symbol>
    <symbol id="keji" viewBox="0 -128 1024 1024"><path fill="currentColor" d="M326 399.92 q-24 34 -43 70 q32 40 68 75.5 q36 35.5 75 67.5 q21 17 33 26 q34 26 72 47 q109 64 198 64 q68 0 109 -40 q46 -47 39 -130 q-7 -80 -63 -177 q-23 36 -50 70 q31 63 36 111.5 q5 48.5 -17 70.5 q-22 22 -70.5 17 q-48.5 -5 -111.5 -36 q-16 -8 -37 -20 q-13 -8 -35 -22 q-18 -12 -33 -24 q-48 -36 -91 -79 q-43 -43 -79 -91 ZM425 154.92 q-39 32 -75 68 q-91 91 -145 188 q-52 94 -58 173.5 q-6 79.5 39 125.5 q41 40 109 40 q89 0 198 -64 l-10 -7 q-16 -10 -36 -25 q-12 -8 -24 -18 q-63 31 -111.5 36 q-48.5 5 -70.5 -17 q-26 -25 -15 -86 q11 -61 56 -136 q48 -82 123 -156 q42 -43 91 -79 l-18 -12 l-29 -18 q-16 -9 -24 -13 ZM541 88.92 q15 9 34 23 q13 10 26 20 q75 -37 129 -37 q36 0 53 18 q26 25 15 86 q-11 61 -56 136 q-48 82 -123 156 q-43 43 -91 79 l12 8 l34 21 q11 7 25 14 q39 -32 74 -68 q92 -91 146 -188 q52 -94 58 -173.5 q6 -79.5 -40 -125.5 q-46 -46 -128 -39 q-82 7 -179 63 l11 7 ZM186 57.92 q-46 47 -39 128.5 q7 81.5 63 178.5 q23 -36 50 -70 q-31 -63 -36 -111.5 q-5 -48.5 17 -70.5 q17 -18 53 -18 q53 0 129 37 q14 7 37 20 l1 0 q18 12 35 23 q20 13 32 23 q48 36 91 79 q43 43 79 91 q24 -34 43 -70 q-32 -40 -67.5 -75.5 q-35.5 -35.5 -74.5 -67.5 l-33 -26 q-24 -17 -36 -24 q-17 -12 -37 -23 q-97 -56 -178.5 -63 q-81.5 -7 -128.5 39 Z"></path></symbol>
    <symbol id="qiche" viewBox="0 -128 1024 1024"><path fill="currentColor" d="M428 18 q-56 0 -102.5 31.5 q-46.5 31.5 -67.5 83.5 l-32 82 q-11 4 -22 9 q-46 25 -70 71 q-13 24 -18.5 51 q-5.5 27 -5.5 68 l0 49 q0 40 5.5 67.5 q5.5 27.5 18.5 51.5 q24 46 70 70 q7 4 15 8 l0 34 q0 38 27 65 q27 27 65 27 l6 0 q36 -3 60.5 -29.5 q24.5 -26.5 24.5 -62.5 l0 -18 l220 0 l0 18 q0 38 26.5 65 q26.5 27 64.5 27 q38 0 65 -27 q27 -27 27 -65 l0 -34 q7 -4 15 -8 q46 -24 70 -70 q13 -24 18.5 -51.5 q5.5 -27.5 5.5 -67.5 l0 -49 q0 -41 -5.5 -68 q-5.5 -27 -18.5 -51 q-24 -46 -70 -71 q-11 -5 -22 -9 l-32 -82 q-21 -52 -67.5 -83.5 q-46.5 -31.5 -102.5 -31.5 l-168 0 ZM329 694 q0 8 -5.5 13.5 q-5.5 5.5 -12.5 5.5 l-3 -1 q-7 -1 -11 -6 q-4 -5 -4 -12 l0 -18 l36 0 l0 18 ZM731 694 q0 8 -5 13.5 q-5 5.5 -13 5.5 l-3 -1 q-7 -1 -11 -6 q-4 -5 -4 -12 l0 -18 l36 0 l0 18 ZM701 274 q32 0 50.5 3.5 q18.5 3.5 34.5 11.5 q26 14 40 40 q8 16 11.5 34.5 q3.5 18.5 3.5 50.5 l0 49 q0 31 -3.5 50 q-3.5 19 -11.5 34 q-14 27 -40 41 q-16 8 -34.5 11.5 q-18.5 3.5 -50.5 3.5 l-378 0 q-32 0 -50.5 -3.5 q-18.5 -3.5 -34.5 -11.5 q-26 -14 -40 -41 q-8 -14 -11.5 -31 q-3.5 -17 -3.5 -44 l0 -58 q0 -32 3.5 -50.5 q3.5 -18.5 11.5 -34.5 q14 -26 40 -40 q15 -8 32 -11.5 q17 -3.5 44 -3.5 l387 0 ZM347 383 q-22 0 -38 16.5 q-16 16.5 -16 39 q0 22.5 16 38.5 q16 16 38.5 16 q22.5 0 38.5 -16 q16 -16 16 -38.5 q0 -22.5 -16 -39 q-16 -16.5 -39 -16.5 ZM677 383 q-23 0 -39 16.5 q-16 16.5 -16 39 q0 22.5 16 38.5 q16 16 38.5 16 q22.5 0 38.5 -16 q16 -16 16 -38.5 q0 -22.5 -16 -39 q-16 -16.5 -38 -16.5 ZM603 91 q32 2 57.5 20.5 q25.5 18.5 37.5 48.5 l16 41 l-404 0 l16 -41 q13 -31 41 -50 q28 -19 61 -19 l168 0 l7 0 Z"></path></symbol>
    <symbol id="lvyou" viewBox="0 -128 1024 1024"><path fill="currentColor" d="M805 388.57 q-11 10 -24 19 l-50 37 l0 253 q-1 7 -6 11 q-5 4 -12 4 q-11 0 -20.5 -7 q-9.5 -7 -12.5 -18 l-43 -175 l-64 47 l38 152 q11 33 39 53.5 q28 20.5 63 20.5 q38 0 65 -26.5 q27 -26.5 27 -64.5 l0 -306 ZM752 -8.43 q-73 14 -135.5 54 q-62.5 40 -106.5 100 l-157 216 q-20 27 -50.5 43 q-30.5 16 -64.5 16 l-37 0 q-38 0 -64.5 26.5 q-26.5 26.5 -26.5 64.5 l0 12 q0 32 19 56.5 q19 24.5 50 32.5 l62 15 q10 3 17 10 q7 7 10 17 l15 62 q8 31 33 50 q25 19 56 19 l12 0 q38 0 64.5 -26.5 q26.5 -26.5 26.5 -64.5 l0 -37 q0 -34 16 -64.5 q16 -30.5 43 -50.5 l216 -157 q60 -44 100 -106.5 q40 -62.5 54 -135.5 l7 -35 q6 -26 -2 -51.5 q-8 -25.5 -26.5 -44 q-18.5 -18.5 -44 -26.5 q-25.5 -8 -51.5 -2 l-35 7 ZM840 81.57 q1 7 0 13 l-7 35 q-12 59 -45 110 q-33 51 -81 87 l-216 156 q-42 31 -65.5 77 q-23.5 46 -23.5 98 l0 37 q0 7 -5 12.5 q-5 5.5 -13 5.5 l-12 0 q-6 0 -11 -4 q-5 -4 -7 -10 l-15 -62 q-8 -29 -29.5 -50.5 q-21.5 -21.5 -50.5 -29.5 l-62 -15 q-6 -2 -10 -7 q-4 -5 -4 -11 l0 -12 q0 -8 5.5 -13 q5.5 -5 12.5 -5 l37 0 q52 0 98 -23.5 q46 -23.5 77 -65.5 l156 -216 q36 -49 87 -81.5 q51 -32.5 110 -44.5 l35 -7 q12 -2 23 4 q11 6 15 18 l1 4 ZM195 91.57 q-36 2 -60.5 28.5 q-24.5 26.5 -24.5 62 q0 35.5 20.5 63.5 q20.5 28 53.5 39 l152 38 l47 -64 l-179 -45 q-9 -3 -15 -12 q-6 -9 -6 -19 q0 -7 4 -12 q4 -5 11 -6 l253 0 l38 -52 q9 -11 18 -22 l-312 1 Z"></path></symbol>
    <symbol id="dili" viewBox="0 -128 1024 1024"><path fill="currentColor" d="M512 -18 q-109 0 -203 55 q-91 53 -144 144 q-55 94 -55 203 q0 109 55 203 q53 91 144 144 q94 55 203 55 q109 0 203 -55 q91 -53 144 -144 q55 -94 55 -203 q0 -109 -55 -203 q-53 -91 -144 -144 q-94 -55 -203 -55 ZM512 55 q89 0 165 44 q75 44 118 117 q45 77 46 166 l-7 -17 q-8 -20 -16 -37 q-26 -51 -62.5 -82.5 q-36.5 -31.5 -74.5 -33.5 q-40 -3 -72 30 q-21 21 -24.5 48 q-3.5 27 6.5 72 l24 86 l4 22 q1 12 -1 17 q-3 9 -10 18 l-7 7 l-20 19 q-31 31 -42 58 q-12 30 -7 70 l1 9 q2 21 16 43 q-83 10 -161 -22 q-75 -31 -128 -93 q-54 -64 -71 -146 q61 24 116 -6 q34 -19 46 -45 q6 -14 6 -25.5 q0 -11.5 -5 -33.5 l-1 -5 q-2 -14 1 -21.5 q3 -7.5 6 -10 q3 -2.5 7 -5.5 l15 -5 q18 -8 29 -18 q11 -10 17 -29 q14 -36 5.5 -80 q-8.5 -44 -39.5 -88 q57 -23 120 -23 ZM661 293 q9 -9 24.5 -4.5 q15.5 4.5 33.5 23.5 q18 19 33 50 q11 20 19 40 l15 38 q16 37 37 52 q-24 69 -75 121.5 q-51 52.5 -120 78.5 q-22 -21 -22 -31 l-1 -12 q-3 -22 3.5 -36 q6.5 -14 28.5 -35 l12 -11 q16 -15 24.5 -27.5 q8.5 -12.5 14 -28 q5.5 -15.5 6 -30.5 q0.5 -15 -4.5 -38 l-4 -14 l-20 -76 l-3 -13 q-9 -39 -1 -47 ZM327 112 q23 31 31 59.5 q8 28.5 0 49.5 l-1 1 q0 1 -2 2 l-19 8 q-35 15 -51 52 q-8 18 -8.5 33.5 q-0.5 15.5 4.5 38.5 l3 14 q-2 3 -14 10 q-19 10 -40 6 q-21 -4 -46 -24 q4 -73 40 -138 q36 -65 97 -108 l6 -4 Z"></path></symbol>
    <symbol id="tianwen" viewBox="0 -128 1024 1024"><path fill="currentColor" d="M819 434.57 q-16 14 -32 27 l-34 26 l-11 8 q-34 70 -102 109.5 q-68 39.5 -146 33.5 l-12 6 q-20 8 -40 16 l-39 14 l-27 9 q72 33 152 29 q80 -4 149 -44 q69 -40 112 -107 q43 -67 51 -146 l-21 19 ZM512 54.57 q-91 0 -168.5 46.5 q-77.5 46.5 -121 126 q-43.5 79.5 -39.5 170 q4 90.5 53 166.5 q23 -3 44 -7 q19 -4 36 -9 q-48 -57 -58 -131 q-10 -74 22 -141.5 q32 -67.5 94.5 -107.5 q62.5 -40 137.5 -40 q81 0 147 46.5 q66 46.5 94 121.5 q13 -13 25 -26 q15 -17 27 -35 q-42 -83 -121 -131.5 q-79 -48.5 -172 -48.5 ZM742 99.57 q36 29 64 67 q22 0 36 4.5 q14 4.5 18 11.5 q8 12 -6 41 q-15 32 -49 70 q-41 46 -102.5 94 q-61.5 48 -135.5 91 q-74 43 -146.5 72 q-72.5 29 -132.5 42 q-51 10 -85 7 q-32 -2 -39 -15 q-9 -15 13 -54 q-19 -44 -26 -90 q-43 53 -57 98 q-14 48 6 83 q27 45 100 51 q70 5 171 -26 l39 -13 q29 -11 57 -23 l33 -15 l46 -22 q23 -12 46 -25 l31 -18 q30 -18 58 -37 l31 -21 l36 -27 q24 -19 46 -38 l25 -23 q73 -69 101 -130 q29 -64 4 -109 q-20 -34 -65.5 -45.5 q-45.5 -11.5 -110.5 -1.5 l-6 1 Z"></path></symbol>
    <symbol id="huihua" viewBox="0 -128 1024 1024"><path fill="currentColor" d="M513 -16 q-121 0 -215 60 q-89 57 -138.5 156 q-49.5 99 -49.5 217 q0 103 36 186.5 q36 83.5 102 131.5 q67 49 155 51 q58 0 91 -15 q32 -14 58 -51 l14 -19 q14 -17 34.5 -22.5 q20.5 -5.5 64.5 -1.5 l26 3 q106 16 162 -60 q52 -70 60 -215 l1 -56 q0 -70 -26 -136 l-59 52 q12 41 12 84 q0 137 -33 202 q-35 67 -106 57 q-81 -11 -126 2 q-43 12 -72 52 l-11 15 q-15 22 -32.5 29 q-17.5 7 -56.5 6 q-66 -1 -116 -39 q-50 -38 -77.5 -104.5 q-27.5 -66.5 -27.5 -151.5 q0 -99 40.5 -181.5 q40.5 -82.5 113.5 -129.5 q77 -49 176 -49 q74 0 135 22 q59 21 102 61 l56 -49 q-54 -51 -126 -78 q-77 -29 -167 -29 ZM347 496 q-22 0 -38 16 q-16 16 -16 38.5 q0 22.5 16 38.5 q16 16 38 16 q15 0 28 -7 q13 -7 20 -20 q7 -13 7 -27.5 q0 -14.5 -7 -27.5 q-7 -13 -20 -20 q-13 -7 -28 -7 ZM347 276 q-22 0 -38 16 q-16 16 -16 39 q0 23 16 39 q16 16 38.5 16 q22.5 0 38.5 -16 q16 -16 16 -39 q0 -23 -16 -39 q-16 -16 -39 -16 ZM942 69 q-10 -11 -25 -12 q-15 -1 -27 9 l-296 259 q-9 11 -8.5 25.5 q0.5 14.5 10.5 25 q10 10.5 24.5 11 q14.5 0.5 25.5 -9.5 l296 -259 q9 -11 9 -24.5 q0 -13.5 -9 -24.5 ZM494 130 q-23 0 -39 16 q-16 16 -16 39 q0 23 16 39 q16 16 38.5 16 q22.5 0 39 -16 q16.5 -16 16.5 -39 q0 -23 -16.5 -39 q-16.5 -16 -38.5 -16 Z"></path></symbol>
    <symbol id="yinle" viewBox="0 -128 1024 1024"><path fill="currentColor" d="M512 -18 q-109 0 -203 55 q-91 53 -144 144 q-55 94 -55 203 q0 109 55 203 q53 91 144 144 q94 55 203 55 q109 0 203 -55 q91 -53 144 -144 q55 -94 55 -203 q0 -15 -10.5 -26 q-10.5 -11 -25.5 -11 q-15 0 -26 11 q-11 11 -11 26 q0 89 -45 166 q-43 75 -118 118 q-77 45 -166 45 q-89 0 -166 -45 q-75 -43 -118 -118 q-45 -77 -45 -166 q0 -89 45 -166 q43 -75 118 -118 q77 -45 166 -45 q15 0 26 -11 q11 -11 11 -26 q0 -15 -11 -25.5 q-11 -10.5 -26 -10.5 ZM680 18 q-11 -5 -25 -2.5 q-14 2.5 -23.5 12.5 q-9.5 10 -9.5 27 l0 183 q-34 -25 -74.5 -33 q-40.5 -8 -80.5 2 q-40 10 -72 36.5 q-32 26.5 -49 64.5 q-17 38 -16.5 79 q0.5 41 19 78.5 q18.5 37.5 51.5 63 q33 25.5 73 34.5 q40 9 81 -1 q41 -10 73 -36 q32 -26 50 -63 q18 -37 18 -79 l0 -246 q0 -30 24 -10 q62 51 95 124 q6 14 20 19.5 q14 5.5 28 -0.5 q14 -6 19.5 -20 q5.5 -14 -0.5 -28 q-30 -68 -82 -121 q-52 -53 -119 -84 ZM512 274 q30 0 55 15 q25 15 40 40 q15 25 15 55 q0 30 -15 55 q-15 25 -40 40 q-25 15 -55 15 q-30 0 -55 -15 q-25 -15 -40 -40 q-15 -25 -15 -55 q0 -30 15 -55 q15 -25 40 -40 q25 -15 55 -15 Z"></path></symbol>
    <symbol id="jiankang" viewBox="0 -128 1024 1024"><path fill="currentColor" d="M512 68.95 l-85 -36 q-53 -21 -108.5 -12.5 q-55.5 8.5 -100.5 42 q-45 33.5 -69 86.5 q-24 55 -24 115.5 q0 60.5 24 115.5 q24 55 69 96 l201 182 q26 24 59.5 32 q33.5 8 67 0 q33.5 -8 59.5 -32 l201 -182 q45 -41 69 -96 q24 -55 24 -115.5 q0 -60.5 -24 -115 q-24 -54.5 -71 -88.5 q-47 -34 -104.5 -41 q-57.5 -7 -111.5 16 l-76 33 ZM808 177.95 q28 63 13.5 130.5 q-14.5 67.5 -65.5 113.5 l-200 182 q-19 17 -44 17 q-25 0 -44 -17 l-200 -182 q-51 -46 -65.5 -113.5 q-14.5 -67.5 13.5 -130.5 q16 -34 45.5 -56.5 q29.5 -22.5 66.5 -28 q37 -5.5 73 7.5 l97 41 q14 6 28 0 l91 -39 q35 -15 72 -11 q37 4 67.5 25 q30.5 21 47.5 54 l4 7 ZM682 262.95 q-5 -10 -16.5 -14.5 q-11.5 -4.5 -22.5 0.5 l-18 8 q-3 1 -6 0 l-20 -8 q-12 -5 -23 0 q-11 5 -16 16 q-5 13 -2.5 27 q2.5 14 13.5 23 l41 38 q4 3 9.5 3 q5.5 0 9.5 -3 l41 -38 q11 -9 14 -23 q3 -14 -3 -27 l-1 -2 Z"></path></symbol>
    <symbol id="jianshen" viewBox="0 -128 1024 1024"><path fill="currentColor" d="M434 48.57 q-21 21 -28 49 q-7 28 0 56.5 q7 28.5 28 49.5 l104 103 l-104 104 l-108 -108 q-32 -29 -75.5 -27.5 q-43.5 1.5 -74.5 32 q-31 30.5 -32 74 q-1 43.5 27 76.5 l5 5 l-5 4 q-29 33 -27.5 76.5 q1.5 43.5 32.5 74.5 l108 108 q31 27 73 27 q42 0 73 -27 l4 -5 l5 5 q22 19 50 24.5 q28 5.5 55.5 -2.5 q27.5 -8 47.5 -29.5 q20 -21.5 26.5 -49 q6.5 -27.5 -1 -55 q-7.5 -27.5 -27.5 -48.5 l-104 -103 l104 -104 l108 108 q22 19 49.5 25 q27.5 6 55 -2.5 q27.5 -8.5 47.5 -29.5 q20 -21 27 -49 q7 -28 -0.5 -55.5 q-7.5 -27.5 -28.5 -48.5 q16 -15 24 -35 q8 -20 8 -42 q0 -22 -8 -42 q-8 -20 -24 -36 l-108 -108 q-33 -29 -76.5 -27.5 q-43.5 1.5 -73.5 32.5 q-22 -21 -50 -28.5 q-28 -7.5 -56 0 q-28 7.5 -50 28.5 ZM228 358.57 q10 -11 25.5 -11 q15.5 0 25.5 11 l262 262 q9 11 7.5 25.5 q-1.5 14.5 -12 24.5 q-10.5 10 -25.5 9.5 q-15 -0.5 -25 -11.5 l-261 -261 q-9 -11 -8 -25 q1 -14 11 -24 ZM486 100.57 q11 -11 26 -11 q15 0 26 11 l261 261 q9 12 8 26.5 q-1 14.5 -12 24 q-11 9.5 -25.5 9 q-14.5 -0.5 -24.5 -10.5 l-262 -262 q-8 -11 -7.5 -25 q0.5 -14 10.5 -23 ZM383 668.57 l-3 3 q-11 9 -25 8 q-14 -1 -24 -11 l-106 -106 q-8 -10 -8 -23 q0 -13 8 -23 l3 -3 l155 155 ZM641 100.57 q11 -11 26 -11 q15 0 26 11 l106 106 q8 10 8 23 q0 13 -8 23 l-3 3 l-155 -155 Z"></path></symbol>
    <symbol id="tiyu" viewBox="0 -128 1024 1024"><path fill="currentColor" d="M512 -18 q-109 0 -203 55 q-91 53 -144 144 q-55 94 -55 203 q0 109 55 203 q53 91 144 144 q94 55 203 55 q109 0 203 -55 q91 -53 144 -144 q55 -94 55 -203 q0 -109 -55 -203 q-53 -91 -144 -144 q-94 -55 -203 -55 ZM841 384 q0 65 -25 125.5 q-25 60.5 -71.5 107 q-46.5 46.5 -107 71.5 q-60.5 25 -125.5 25 l0 -10 q3 -87 48 -161 q44 -73 118 -115 q76 -43 163 -43 ZM585 63 q93 21 160 88 q67 67 88 160 q-108 2 -199 57 q-89 54 -141 144 q-54 93 -54 201 l0 -8 q-93 -21 -160 -88 q-67 -67 -88 -160 q108 -2 199 -57 q89 -54 141 -144 q54 -93 54 -201 l0 8 ZM512 65 q-3 87 -48 161 q-44 73 -118 115 q-76 43 -163 43 q0 -89 45 -166 q43 -75 118 -118 q77 -45 166 -45 l0 10 Z"></path></symbol>
    <symbol id="canyin" viewBox="0 -128 1024 1024"><path fill="currentColor" d="M402 55.35 q-42 0 -73 28 q-24 -22 -56 -27 q-32 -5 -61.5 8.5 q-29.5 13.5 -47.5 40.5 q-18 27 -18 60 l1 103 q1 30 13 57 q12 27 34 48 l4 5 q21 25 21 58 l1 174 q2 43 34 73 q32 30 75 30 l7 0 q43 -3 73 -34.5 q30 -31.5 30 -75.5 l0 -174 q3 -33 26 -56 l6 -6 q20 -22 30.5 -50 q10.5 -28 10.5 -58 l0 -101 q-3 -43 -34.5 -73 q-31.5 -30 -75.5 -30 ZM677 55.35 q-38 0 -65 26.5 q-27 26.5 -27 64.5 l0 457 q0 30 15 55.5 q15 25.5 40 40 q25 14.5 55 14.5 q30 0 55 -14.5 q25 -14.5 40 -40 q15 -25.5 15 -55.5 l0 -58 q0 -36 25 -62 l5 -4 q20 -21 31.5 -48 q11.5 -27 11.5 -56 l0 -174 q0 -29 -11.5 -56 q-11.5 -27 -32 -47.5 q-20.5 -20.5 -47 -31.5 q-26.5 -11 -56.5 -11 l-54 0 ZM402 128.35 q15 0 26 10.5 q11 10.5 11 26.5 l0 101 q-3 33 -26 56 l-6 6 q-20 22 -30.5 50 q-10.5 28 -10.5 58 l-1 172 q-1 14 -11.5 23 q-10.5 9 -24.5 9 l-4 0 q-14 -2 -23 -12.5 q-9 -10.5 -9 -24.5 l-1 -176 q-1 -30 -13.5 -57 q-12.5 -27 -33.5 -48 l-4 -6 q-22 -24 -22 -57 l1 -99 q1 -14 12.5 -23.5 q11.5 -9.5 26 -8.5 q14.5 1 24.5 11.5 q10 10.5 10 25.5 l0 77 q1 14 11.5 23 q10.5 9 24.5 9 l4 0 q14 -2 23.5 -12 q9.5 -10 9.5 -24 l0 -78 q2 -14 12 -23 q10 -9 24 -9 ZM731 128.35 q31 0 52.5 21.5 q21.5 21.5 21.5 51.5 l0 174 q0 30 -22 52 l-4 4 q-23 23 -35.5 52.5 q-12.5 29.5 -12.5 61.5 l0 58 q0 16 -10.5 26.5 q-10.5 10.5 -25.5 10.5 q-15 0 -26 -10.5 q-11 -10.5 -11 -26.5 l0 -457 q0 -7 5.5 -12.5 q5.5 -5.5 13.5 -5.5 l54 0 Z"></path></symbol>
    <symbol id="jianzhu" viewBox="0 -128 1024 1024"><path fill="currentColor" d="M238 104.69 q-41 17 -66.5 54 q-25.5 37 -25.5 82 l0 364 q0 30 11.5 56.5 q11.5 26.5 32 47 q20.5 20.5 47 32 q26.5 11.5 56.5 11.5 l438 0 q30 0 56.5 -11.5 q26.5 -11.5 47 -32 q20.5 -20.5 32 -47 q11.5 -26.5 11.5 -56.5 l-1 -151 q-2 -43 -27.5 -78.5 q-25.5 -35.5 -66.5 -50.5 l-198 -74 l0 -123 q0 -27 -12.5 -51 q-12.5 -24 -35.5 -39.5 q-23 -15.5 -50 -18.5 q-27 -3 -52 7 l-197 79 ZM511 118.69 q1 5 1 9 l0 551 l-219 0 q-31 0 -52.5 -21.5 q-21.5 -21.5 -21.5 -52.5 l0 -364 q0 -23 13 -41.5 q13 -18.5 33 -26.5 l197 -79 q14 -5 28 1 q14 6 19 20 l2 4 ZM757 393.69 q22 8 35 26.5 q13 18.5 13 41.5 l-1 149 q-2 29 -23 48.5 q-21 19.5 -50 19.5 l-146 0 l0 -350 l172 65 ZM695 458.69 q-15 0 -26 11 q-11 11 -11 26 l0 36 q0 15 11 26 q11 11 26 11 q15 0 25.5 -11 q10.5 -11 10.5 -26 l0 -36 q0 -15 -10.5 -26 q-10.5 -11 -25.5 -11 ZM366 312.69 q-15 0 -26 10.5 q-11 10.5 -11 25.5 l0 110 q0 15 11 26 q11 11 26 11 q15 0 25.5 -11 q10.5 -11 10.5 -26 l0 -110 q0 -15 -10.5 -25.5 q-10.5 -10.5 -25.5 -10.5 Z"></path></symbol>
    <symbol id="dianying" viewBox="0 -128 1024 1024"><path fill="currentColor" d="M512 -18 q-109 0 -203 55 q-91 53 -144 144 q-55 94 -55 203 q0 109 55 203 q53 91 144 144 q94 55 203 55 l333 0 q15 -2 24 -13 q9 -11 8.5 -25.5 q-0.5 -14.5 -11 -24.5 q-10.5 -10 -25.5 -10 l-339 0 q-88 -3 -163 -49 q-73 -45 -115 -120 q-43 -78 -41 -166.5 q2 -88.5 48 -164.5 q44 -73 119 -115 q76 -44 165 -43 q89 1 165 46 q74 44 117 118 q44 76 44 165 q0 89 -45 166 q-48 83 -133 127 l125 0 q42 -40 71 -90 q55 -94 55 -203 q0 -109 -55 -203 q-53 -91 -144 -144 q-94 -55 -203 -55 ZM512 457 q-30 0 -55 15 q-25 15 -40 40 q-15 25 -15 55 q0 30 15 55 q15 25 40 40 q25 15 55 15 q30 0 55 -15 q25 -15 40 -40 q15 -25 15 -55 q0 -30 -15 -55 q-15 -25 -40 -40 q-25 -15 -55 -15 ZM512 530 q15 0 26 11 q11 11 11 26 q0 15 -11 25.5 q-11 10.5 -26 10.5 q-10 0 -18.5 -4.5 q-8.5 -4.5 -13.5 -13 q-5 -8.5 -5 -18.5 q0 -10 5 -18.5 q5 -8.5 13.5 -13.5 q8.5 -5 18.5 -5 ZM695 274 q-30 0 -55 15 q-25 15 -40 40 q-15 25 -15 55 q0 30 15 55 q15 25 40 40 q25 15 55 15 q30 0 55 -15 q25 -15 40 -40 q15 -25 15 -55 q0 -30 -15 -55 q-15 -25 -40 -40 q-25 -15 -55 -15 ZM329 274 q-30 0 -55 15 q-25 15 -40 40 q-15 25 -15 55 q0 30 15 55 q15 25 40 40 q25 15 55 15 q30 0 55 -15 q25 -15 40 -40 q15 -25 15 -55 q0 -30 -15 -55 q-15 -25 -40 -40 q-25 -15 -55 -15 ZM695 347 q15 0 25.5 11 q10.5 11 10.5 26 q0 15 -10.5 26 q-10.5 11 -25.5 11 q-10 0 -18.5 -5 q-8.5 -5 -13.5 -13.5 q-5 -8.5 -5 -18.5 q0 -10 5 -18.5 q5 -8.5 13.5 -13.5 q8.5 -5 18.5 -5 ZM329 347 q15 0 26 11 q11 11 11 26 q0 15 -11 26 q-11 11 -26 11 q-10 0 -18.5 -5 q-8.5 -5 -13 -13.5 q-4.5 -8.5 -4.5 -18.5 q0 -10 4.5 -18.5 q4.5 -8.5 13 -13.5 q8.5 -5 18.5 -5 ZM512 91 q-30 0 -55 15 q-25 15 -40 40 q-15 25 -15 55 q0 30 15 55 q15 25 40 40 q25 15 55 15 q30 0 55 -15 q25 -15 40 -40 q15 -25 15 -55 q0 -30 -15 -55 q-15 -25 -40 -40 q-25 -15 -55 -15 ZM512 165 q15 0 26 10.5 q11 10.5 11 25.5 q0 15 -11 26 q-11 11 -26 11 q-10 0 -18.5 -5 q-8.5 -5 -13.5 -13.5 q-5 -8.5 -5 -18.5 q0 -10 5 -18.5 q5 -8.5 13.5 -13 q8.5 -4.5 18.5 -4.5 Z"></path></symbol>
    <symbol id="shejiao" viewBox="0 -128 1024 1024"><path fill="currentColor" d="M480 128.2 q-48 0 -76.5 5.5 q-28.5 5.5 -53.5 18.5 q-46 24 -70 70 q-13 24 -18 50 q-5 26 -6 69 l0 112 q0 48 5 76.5 q5 28.5 19 53.5 q24 45 70 70 l6 3 q23 11 50.5 16 q27.5 5 73.5 5 l53 0 l66 65 l4 3 q11 6 23.5 4.5 q12.5 -1.5 21.5 -10.5 l62 -62 l-2 0 q36 0 62.5 -6 q26.5 -6 49.5 -18 q46 -25 70 -70 q13 -24 18.5 -50.5 q5.5 -26.5 5.5 -61.5 l0 -119 q0 -48 -5 -76.5 q-5 -28.5 -19 -53.5 q-24 -46 -70 -70 q-24 -13 -50 -18 q-26 -5 -69 -6 l-221 0 ZM716 202.2 l14 0 q19 2 31.5 5 q12.5 3 24.5 9 q26 14 40 41 q6 11 9.5 23.5 q3.5 12.5 4.5 31.5 l1 15 l0 25 l0 119 q0 26 -3.5 44 q-3.5 18 -11.5 33 q-14 26 -40 40 q-15 8 -33 12 q-18 4 -45 4 l-18 0 q-12 2 -21 10 l-47 48 l-48 -48 q-10 -10 -25 -10 l-95 -1 l-14 -1 q-19 -1 -31.5 -4 q-12.5 -3 -23.5 -10 q-27 -14 -41 -40 q-6 -12 -9 -24.5 q-3 -12.5 -5 -31.5 l0 -14 l-1 -25 l1 -126 l0 -15 q2 -19 5 -31.5 q3 -12.5 9 -23.5 q14 -27 41 -41 q11 -6 23.5 -9 q12.5 -3 31.5 -5 l31 -1 l219 0 l26 1 ZM725 398.2 q-9 -12 -24 -14 q-15 -2 -27 7 q-39 30 -88 30 q-49 0 -88 -29 q-12 -9 -27 -6.5 q-15 2.5 -24 14.5 q-9 12 -7 26.5 q2 14.5 14 24.5 q29 21 62.5 32 q33.5 11 69 11 q35.5 0 69.5 -11.5 q34 -11.5 63 -33.5 q12 -9 14 -24 q2 -15 -7 -27 ZM334 -54.8 q-49 0 -77 5.5 q-28 5.5 -53 18.5 q-46 25 -70 70 q-13 24 -18.5 50.5 q-5.5 26.5 -5.5 68.5 l0 141 q1 59 24 101 q24 46 70 70 l16 8 l-1 -86 q-12 -11 -20.5 -26.5 q-8.5 -15.5 -12 -33.5 q-3.5 -18 -3.5 -44 l0 -128 l1 -30 l1 -9 q2 -27 13 -47 q14 -26 40 -40 q12 -7 24.5 -10 q12.5 -3 31.5 -4 l31 -2 l228 0 l31 2 l8 0 q27 3 47 14 q27 14 41 40 q4 8 7 18 l26 0 q25 0 50 4 q-5 -30 -19 -57 q-24 -45 -70 -70 q-24 -12 -50 -17.5 q-26 -5.5 -69 -6.5 l-221 0 Z"></path></symbol>
    <symbol id="ai" viewBox="0 -128 1024 1024"><path fill="currentColor" d="M531 -18.11 q-73 0 -138.5 29.5 q-65.5 29.5 -111.5 83.5 q-95 110 -98 279 l-105 174 q-5 9 -5 19 q0 10 5 18.5 q5 8.5 13.5 13.5 q8.5 5 18.5 5 l109 0 l0 110 q0 21 8.5 41.5 q8.5 20.5 24 36 q15.5 15.5 35.5 24 q20 8.5 42 7.5 l146 0 q10 0 18.5 -5 q8.5 -5 13.5 -13 q5 -8 5 -18 q0 -10 -5 -18.5 q-5 -8.5 -13.5 -13.5 q-8.5 -5 -18.5 -5 l-146 0 q-15 0 -25.5 -10.5 q-10.5 -10.5 -10.5 -25.5 l0 -147 q0 -15 -11 -25.5 q-11 -10.5 -26 -10.5 l-82 0 l76 -127 q6 -9 6 -20 q0 -149 80 -241 q76 -88 195 -88 q220 0 276 159 q5 14 18.5 20.5 q13.5 6.5 28 1.5 q14.5 -5 21 -18.5 q6.5 -13.5 1.5 -27.5 q-73 -208 -345 -208 ZM532 314.89 q-11 6 -16 17 l-146 292 q-5 9 -4.5 18.5 q0.5 9.5 6 18 q5.5 8.5 14.5 13 q9 4.5 18.5 3.5 q9.5 -1 18 -6 q8.5 -5 12.5 -14 l26 -53 l175 0 l26 53 q4 9 12.5 14.5 q8.5 5.5 18.5 6.5 q10 1 19 -3.5 q9 -4.5 14.5 -13 q5.5 -8.5 5.5 -18.5 q0 -10 -4 -19 l-147 -292 q-7 -14 -21 -19 q-14 -5 -28 2 ZM841 310.89 q-15 0 -25.5 11 q-10.5 11 -10.5 26 l0 292 q0 10 4.5 18.5 q4.5 8.5 13 13.5 q8.5 5 18.5 5 q10 0 18.5 -5 q8.5 -5 13.5 -13.5 q5 -8.5 5 -18.5 l0 -292 q0 -15 -11 -26 q-11 -11 -26 -11 ZM599 530.89 l-101 0 l51 -101 l50 101 Z"></path></symbol>
    <symbol id="gongju" viewBox="0 -128 1024 1024"><path fill="currentColor" d="M439 55 q-30 0 -55 14.5 q-25 14.5 -40 40 q-15 25.5 -15 54.5 l0 2 q-29 1 -49 6.5 q-20 5.5 -40 15.5 q-45 25 -70 71 q-12 23 -17.5 49.5 q-5.5 26.5 -6.5 68.5 l0 185 q0 48 5.5 76.5 q5.5 28.5 18.5 53.5 q25 46 70 70 q25 14 53.5 19 q28.5 5 76.5 5 l284 0 q48 0 76.5 -5 q28.5 -5 53.5 -19 q45 -24 70 -70 q13 -25 18.5 -53.5 q5.5 -28.5 5.5 -76.5 l0 -173 q0 -49 -5.5 -77 q-5.5 -28 -18.5 -53 q-25 -46 -70 -71 q-20 -10 -40 -15.5 q-20 -5.5 -49 -6.5 l0 -2 q0 -29 -15 -54.5 q-15 -25.5 -40 -40 q-25 -14.5 -55 -14.5 l-146 0 ZM805 494 l-1 94 l-1 14 q-1 19 -4 31.5 q-3 12.5 -10 23.5 q-14 27 -40 41 q-12 6 -24.5 9.5 q-12.5 3.5 -31.5 4.5 l-14 1 l-25 0 l-309 0 l-14 -1 q-19 -1 -31.5 -4.5 q-12.5 -3.5 -24.5 -9.5 q-26 -14 -40 -41 q-7 -11 -10 -23.5 q-3 -12.5 -4 -31.5 l-1 -14 l-1 -94 l190 0 q11 32 39.5 52.5 q28.5 20.5 63.5 20.5 q35 0 63.5 -20.5 q28.5 -20.5 39.5 -52.5 l190 0 ZM512 420 q15 0 26 11 q11 11 11 26 q0 15 -11 26 q-11 11 -26 11 q-10 0 -18.5 -5 q-8.5 -5 -13.5 -13.5 q-5 -8.5 -5 -18.5 q0 -10 5 -18.5 q5 -8.5 13.5 -13.5 q8.5 -5 18.5 -5 ZM679 238 l14 1 q19 1 31.5 4.5 q12.5 3.5 24.5 9.5 q26 14 40 40 q7 12 10 24.5 q3 12.5 4 31.5 l1 14 l1 57 l-190 0 q-11 -32 -39.5 -52.5 q-28.5 -20.5 -63.5 -20.5 q-35 0 -63.5 20.5 q-28.5 20.5 -39.5 52.5 l-190 0 l1 -57 l1 -14 q1 -19 4 -31.5 q3 -12.5 10 -24.5 q14 -26 40 -40 q12 -6 24.5 -9.5 q12.5 -3.5 31.5 -4.5 l30 -1 l293 0 l25 0 ZM589 128 q14 2 23.5 12.5 q9.5 10.5 9.5 23.5 l-220 0 q0 -15 11 -25.5 q11 -10.5 26 -10.5 l146 0 l4 0 Z"></path></symbol>
    <symbol id="jinrong" viewBox="0 -128 1024 1024"><path fill="currentColor" d="M512 -18 q-109 0 -203 55 q-91 53 -144 144 q-55 94 -55 203 q0 109 55 203 q53 91 144 144 q94 55 203 55 q109 0 203 -55 q91 -53 144 -144 q55 -94 55 -203 q0 -109 -55 -203 q-53 -91 -144 -144 q-94 -55 -203 -55 ZM512 55 q89 0 166 45 q75 43 118 118 q45 77 45 166 q0 89 -45 166 q-43 75 -118 118 q-77 45 -166 45 q-89 0 -166 -45 q-75 -43 -118 -118 q-45 -77 -45 -166 q0 -89 45 -166 q43 -75 118 -118 q77 -45 166 -45 ZM480 211 q-50 91 -141 141 q-8 5 -13.5 13.5 q-5.5 8.5 -5.5 18.5 q0 10 5 18.5 q5 8.5 14 13.5 l12 7 q83 49 129 134 q5 8 13.5 13.5 q8.5 5.5 18.5 5.5 q10 0 18.5 -5 q8.5 -5 13.5 -14 l7 -12 q49 -83 134 -129 q8 -5 13.5 -13.5 q5.5 -8.5 5.5 -18.5 q0 -10 -5 -18.5 q-5 -8.5 -14 -13.5 l-12 -7 q-83 -49 -129 -134 q-5 -8 -13.5 -13.5 q-8.5 -5.5 -18.5 -5.5 q-10 0 -18.5 5.5 q-8.5 5.5 -13.5 13.5 ZM513 298 q36 48 85 85 l2 1 l-2 1 q-48 36 -85 85 l-1 2 l-1 -2 q-36 -48 -85 -85 l-2 -1 l10 -7 q39 -32 71 -71 l7 -10 l1 2 Z"></path></symbol>
    <symbol id="zixun" viewBox="0 -128 1024 1024"><path fill="currentColor" d="M329 55 q-50 0 -92 24.5 q-42 24.5 -66.5 66.5 q-24.5 42 -24.5 92 l0 292 q0 37 14 70.5 q14 33.5 40 59 q26 25.5 59.5 39.5 q33.5 14 69.5 14 l366 0 q50 0 92 -24.5 q42 -24.5 66.5 -66.5 q24.5 -42 24.5 -92 l0 -292 q0 -50 -24.5 -92 q-24.5 -42 -66.5 -66.5 q-42 -24.5 -92 -24.5 l-366 0 ZM695 128 q22 0 42 8.5 q20 8.5 35.5 24 q15.5 15.5 24 35.5 q8.5 20 8.5 42 l0 292 q0 22 -8.5 42 q-8.5 20 -24 35.5 q-15.5 15.5 -35.5 24 q-20 8.5 -42 8.5 l-366 0 q-22 0 -42 -8.5 q-20 -8.5 -35.5 -24 q-15.5 -15.5 -24 -35.5 q-8.5 -20 -8.5 -42 l0 -292 q0 -22 8.5 -42 q8.5 -20 24 -35.5 q15.5 -15.5 35.5 -24 q20 -8.5 42 -8.5 l366 0 ZM329 494 q-15 0 -25.5 10.5 q-10.5 10.5 -10.5 25.5 q0 15 10.5 26 q10.5 11 25.5 11 l73 0 q15 0 26 -11 q11 -11 11 -26 q0 -15 -11 -25.5 q-11 -10.5 -26 -10.5 l-73 0 ZM329 347 q-15 0 -25.5 11 q-10.5 11 -10.5 26 q0 15 10.5 26 q10.5 11 25.5 11 l293 0 q15 0 25.5 -11 q10.5 -11 10.5 -26 q0 -15 -10.5 -26 q-10.5 -11 -25.5 -11 l-293 0 ZM329 201 q-15 0 -25.5 11 q-10.5 11 -10.5 26 q0 15 10.5 25.5 q10.5 10.5 25.5 10.5 l183 0 q15 0 26 -10.5 q11 -10.5 11 -25.5 q0 -15 -11 -26 q-11 -11 -26 -11 l-183 0 Z"></path></symbol>
    <symbol id="gouwu" viewBox="0 -128 1024 1024"><path fill="currentColor" d="M363 55 q-47 0 -87.5 22 q-40.5 22 -66 61 q-25.5 39 -28.5 86 l-23 292 q-2 38 10.5 74.5 q12.5 36.5 38.5 64.5 q26 28 61 43 q35 15 73 15 l342 0 q38 0 73 -15 q35 -15 61 -43 q26 -28 38.5 -64.5 q12.5 -36.5 10.5 -74.5 l-23 -292 q-3 -47 -28.5 -86 q-25.5 -39 -66 -61 q-40.5 -22 -87.5 -22 l-298 0 ZM661 128 q43 0 74.5 29 q31.5 29 34.5 72 l23 293 q1 23 -6.5 44.5 q-7.5 21.5 -23 38.5 q-15.5 17 -36.5 26 q-21 9 -44 9 l-342 0 q-23 0 -44 -9 q-21 -9 -36.5 -26 q-15.5 -17 -23 -38.5 q-7.5 -21.5 -6.5 -44.5 l23 -293 q3 -43 34.5 -72 q31.5 -29 74.5 -29 l298 0 ZM622 201 q-15 0 -26 11 q-11 11 -11 26 l0 78 q-2 30 -24 49.5 q-22 19.5 -51.5 18.5 q-29.5 -1 -50 -22.5 q-20.5 -21.5 -20.5 -50.5 l0 -78 q-2 -14 -13 -23.5 q-11 -9.5 -25.5 -8.5 q-14.5 1 -24.5 11.5 q-10 10.5 -10 25.5 l0 80 q2 39 22.5 71.5 q20.5 32.5 54.5 50.5 q34 18 73 17 q39 -1 71.5 -21 q32.5 -20 51.5 -53 q19 -33 19 -72 l0 -78 q-2 -13 -12 -22.5 q-10 -9.5 -24 -9.5 Z"></path></symbol>
    <symbol id="yule" viewBox="0 -128 1024 1024"><path fill="currentColor" d="M370 55 q-48 0 -76.5 5 q-28.5 5 -53.5 19 q-45 24 -70 70 q-12 24 -17.5 50 q-5.5 26 -6.5 69 l0 221 q0 48 5.5 76.5 q5.5 28.5 18.5 53.5 q25 46 70 70 q25 14 53.5 19 q28.5 5 76.5 5 l284 0 q48 0 76.5 -5 q28.5 -5 53.5 -19 q45 -24 70 -70 q13 -25 18.5 -53.5 q5.5 -28.5 5.5 -76.5 l0 -210 q0 -48 -5.5 -76.5 q-5.5 -28.5 -18.5 -53.5 q-25 -46 -70 -70 q-24 -13 -50.5 -18.5 q-26.5 -5.5 -68.5 -5.5 l-295 0 ZM679 128 l14 1 q19 1 31.5 4.5 q12.5 3.5 24.5 9.5 q26 14 40 41 q7 11 10 23.5 q3 12.5 4 31.5 l1 14 l1 26 l-1 236 l-1 14 q-1 19 -4 31.5 q-3 12.5 -10 23.5 q-14 27 -40 41 q-12 6 -24.5 9.5 q-12.5 3.5 -31.5 4.5 l-14 1 l-25 0 l-309 0 l-14 -1 q-19 -1 -31.5 -4.5 q-12.5 -3.5 -24.5 -9.5 q-26 -14 -40 -41 q-7 -11 -10 -23.5 q-3 -12.5 -4 -31.5 l-1 -14 l-1 -26 l0 -210 l1 -26 l1 -14 q1 -19 4 -31.5 q3 -12.5 10 -23.5 q14 -27 40 -41 q12 -6 24.5 -9.5 q12.5 -3.5 31.5 -4.5 l30 -1 l293 0 l25 0 ZM640 421 q-23 0 -39 16 q-16 16 -16 38.5 q0 22.5 16 38.5 q16 16 39 16 q15 0 27.5 -7 q12.5 -7 20 -20 q7.5 -13 7.5 -27.5 q0 -14.5 -7.5 -27.5 q-7.5 -13 -20 -20 q-12.5 -7 -27.5 -7 ZM402 274 q-15 0 -25.5 11 q-10.5 11 -10.5 26 l0 36 l-37 0 q-15 0 -25.5 11 q-10.5 11 -10.5 26 q0 15 10.5 26 q10.5 11 25.5 11 l37 0 l0 36 q0 15 10.5 26 q10.5 11 25.5 11 q15 0 26 -11 q11 -11 11 -26 l0 -36 l36 0 q16 0 26.5 -11 q10.5 -11 10.5 -26 q0 -15 -10.5 -26 q-10.5 -11 -26.5 -11 l-36 0 l0 -36 q0 -15 -11 -26 q-11 -11 -26 -11 ZM640 238 q-23 0 -39 16 q-16 16 -16 38.5 q0 22.5 16 38.5 q16 16 39 16 q15 0 27.5 -7 q12.5 -7 20 -20 q7.5 -13 7.5 -27.5 q0 -14.5 -7.5 -27.5 q-7.5 -13 -20 -20 q-12.5 -7 -27.5 -7 Z"></path></symbol>
    <symbol id="tupian" viewBox="0 -128 1024 1024"><path fill="currentColor" d="M370 55 q-48 0 -76.5 5 q-28.5 5 -53.5 19 q-45 24 -70 70 q-12 24 -17.5 50 q-5.5 26 -6.5 69 l0 232 q1 43 6.5 69 q5.5 26 17.5 50 q25 46 70 70 q25 14 53.5 19 q28.5 5 76.5 5 l295 0 q42 0 68.5 -5.5 q26.5 -5.5 50.5 -18.5 q45 -24 70 -70 q13 -25 18.5 -53.5 q5.5 -28.5 5.5 -76.5 l0 -221 q-1 -43 -6.5 -69 q-5.5 -26 -17.5 -50 q-25 -46 -70 -70 q-24 -13 -50.5 -18.5 q-26.5 -5.5 -68.5 -5.5 l-295 0 ZM219 386 q66 9 121 44 q55 35 90 89.5 q35 54.5 43 120.5 l-128 0 l-23 -2 q-27 -3 -47 -13 q-26 -14 -40 -41 q-7 -11 -10 -23.5 q-3 -12.5 -4 -31.5 l-1 -22 l-1 -18 l0 -103 ZM679 128 l23 2 q27 3 47 13 q26 14 40 41 q7 11 10 23.5 q3 12.5 4 31.5 l1 22 l0 254 l-1 22 q-3 28 -14 47 q-14 27 -40 41 q-12 6 -24.5 9.5 q-12.5 3.5 -31.5 4.5 l-22 1 l-124 0 q-9 -85 -54 -157 q-45 -72 -116.5 -117 q-71.5 -45 -157.5 -53 l0 -43 l2 -31 l0 -8 q3 -28 14 -47 q14 -27 40 -41 q12 -6 24.5 -9.5 q12.5 -3.5 31.5 -4.5 l30 -1 l293 0 l25 0 ZM640 238 q-23 0 -39 16 q-16 16 -16 38.5 q0 22.5 16 38.5 q16 16 39 16 q15 0 27.5 -7 q12.5 -7 20 -20 q7.5 -13 7.5 -27.5 q0 -14.5 -7.5 -27.5 q-7.5 -13 -20 -20 q-12.5 -7 -27.5 -7 Z"></path></symbol>
    <symbol id="chengxu" viewBox="0 -128 1024 1024"><path fill="currentColor" d="M492 497.21 q-14 -7 -28 -2 q-14 5 -21 19 l-37 73 l-2 4 q-5 15 2 28 l39 77 q7 12 20.5 15.5 q13.5 3.5 26.5 -2.5 l4 -2 q11 -8 14.5 -21.5 q3.5 -13.5 -2.5 -25.5 l-28 -57 l30 -61 q5 -13 -0.5 -26 q-5.5 -13 -17.5 -19 ZM752 497.21 q-13 6 -18 19 q-5 13 0 26 l30 61 l-29 57 q-6 12 -2.5 25.5 q3.5 13.5 15.5 21.5 l4 2 q12 6 25.5 2.5 q13.5 -3.5 21.5 -15.5 l38 -77 q7 -13 2 -28 l-2 -4 l-36 -73 q-7 -14 -21.5 -19 q-14.5 -5 -27.5 2 ZM675 497.21 q-14 -7 -28.5 -2 q-14.5 5 -20.5 19 l-75 150 q-5 13 0.5 26.5 q5.5 13.5 19 19 q13.5 5.5 27 0.5 q13.5 -5 20.5 -18 l75 -150 q4 -13 -1 -26 q-5 -13 -17 -19 ZM359 18.21 q-42 0 -68.5 5.5 q-26.5 5.5 -50.5 18.5 q-45 24 -70 70 q-13 25 -18.5 53.5 q-5.5 28.5 -5.5 76.5 l0 185 q1 42 6.5 68.5 q5.5 26.5 17.5 49.5 q25 46 70 71 q14 7 28.5 2.5 q14.5 -4.5 21.5 -18 q7 -13.5 2.5 -28 q-4.5 -14.5 -17.5 -21.5 q-26 -14 -40 -40 q-7 -12 -10 -24.5 q-3 -12.5 -4 -31.5 l-1 -14 l-1 -26 l0 -141 l586 0 l0 77 q2 15 13 24 q11 9 25.5 8.5 q14.5 -0.5 24.5 -11 q10 -10.5 10 -25.5 l0 -116 q-1 -43 -6.5 -69 q-5.5 -26 -17.5 -50 q-25 -46 -70 -70 q-25 -14 -53.5 -19 q-28.5 -5 -76.5 -5 l-295 0 ZM679 91.21 l14 1 q19 1 31.5 4.5 q12.5 3.5 24.5 9.5 q26 14 40 41 q11 19 14 47 l0 7 l-582 0 q2 -33 14 -54 q14 -27 40 -41 q12 -6 24.5 -9.5 q12.5 -3.5 31.5 -4.5 l14 -1 l25 0 l284 0 l25 0 Z"></path></symbol>
    <symbol id="sheji" viewBox="0 -128 1024 1024"><path fill="currentColor" d="M561 164.71 q-29 -26 -67 -34 q-38 -8 -75 4 l-98 33 q-36 14 -60 44.5 q-24 30.5 -30 68.5 l-48 313 q-2 25 7 48.5 q9 23.5 27 41 q18 17.5 42 25 q24 7.5 49 3.5 l315 -49 q38 -8 66.5 -33.5 q28.5 -25.5 40.5 -62.5 l33 -98 q10 -38 0 -75.5 q-10 -37.5 -37 -64.5 l-159 -159 l-6 -5 ZM448 201.71 q18 -4 36.5 1 q18.5 5 31.5 19 l163 163 q12 14 15.5 32.5 q3.5 18.5 -2.5 36.5 l-32 96 q-8 17 -22.5 28.5 q-14.5 11.5 -33.5 14.5 l-295 45 l148 -147 q22 6 44 -2 q22 -8 35 -27.5 q13 -19.5 12.5 -43 q-0.5 -23.5 -15 -42.5 q-14.5 -19 -37 -25.5 q-22.5 -6.5 -44.5 1 q-22 7.5 -36 26.5 q-14 19 -14 43 l0 5 q1 7 3 13 l-147 148 l46 -301 q4 -18 17 -32 q13 -14 31 -20 l90 -30 l6 -2 ZM681 62.71 q-12 -9 -26.5 -8 q-14.5 1 -24 12 q-9.5 11 -9 25.5 q0.5 14.5 10.5 24.5 l150 150 q12 8 26 7 q14 -1 24 -12 q10 -11 9.5 -25.5 q-0.5 -14.5 -11.5 -24.5 l-146 -146 l-3 -3 Z"></path></symbol>
    <symbol id="zhuye" viewBox="0 -128 1024 1024"><path fill="currentColor" d="M256 237 q-35 26 -54 64.5 q-19 38.5 -19 81.5 l0 147 q0 36 14 69.5 q14 33.5 39.5 59.5 q25.5 26 59 40 q33.5 14 70.5 14 l292 0 q50 0 92 -25 q42 -25 66.5 -67 q24.5 -42 24.5 -91 l0 -147 q0 -43 -19 -81.5 q-19 -38.5 -54 -64.5 l-146 -110 q-49 -36 -110 -36 q-61 0 -110 36 l-146 110 ZM578 186 l146 110 q21 15 32.5 38.5 q11.5 23.5 11.5 48.5 l0 147 q0 30 -15 55 q-15 25 -40 39.5 q-25 14.5 -55 14.5 l-292 0 q-30 0 -55 -14.5 q-25 -14.5 -40 -39.5 q-15 -25 -15 -55 l0 -147 q0 -25 11.5 -48.5 q11.5 -23.5 32.5 -38.5 l146 -110 q28 -21 62.5 -22 q34.5 -1 63.5 18 l6 4 ZM439 493 q-15 0 -26 11 q-11 11 -11 26 q0 15 11 25.5 q11 10.5 26 10.5 l146 0 q15 0 26 -10.5 q11 -10.5 11 -25.5 q0 -15 -11 -26 q-11 -11 -26 -11 l-146 0 Z"></path></symbol>
  </defs>
</svg>