<?xml version="1.0" encoding="UTF-8"?>
<svg width="24px" height="24px" viewBox="0 0 24 24" version="1.1" xmlns="http://www.w3.org/2000/svg" xmlns:xlink="http://www.w3.org/1999/xlink">
    <title>add_icon</title>
    <g id="页面-1" stroke="none" stroke-width="1" fill="none" fill-rule="evenodd">
        <g id="4.添加_图标" transform="translate(-1591.000000, -574.000000)" fill="#FFFFFF">
            <g id="图标" transform="translate(523.000000, -50.000000)">
                <g id="编组-2备份-4" transform="translate(0.000000, 592.000000)">
                    <g id="add_icon" transform="translate(1068.000000, 32.000000)">
                        <rect id="矩形" opacity="0" x="0" y="0" width="24" height="24"></rect>
                        <path d="M12,2 C12.5522847,2 13,2.44771525 13,3 L13,11 L21,11 C21.5522847,11 22,11.4477153 22,12 C22,12.5522847 21.5522847,13 21,13 L13,13 L13,21 C13,21.5522847 12.5522847,22 12,22 C11.4477153,22 11,21.5522847 11,21 L11,13 L3,13 C2.44771525,13 2,12.5522847 2,12 C2,11.4477153 2.44771525,11 3,11 L11,11 L11,3 C11,2.44771525 11.4477153,2 12,2 Z" id="路径"></path>
                    </g>
                </g>
            </g>
        </g>
    </g>
</svg>